<svg xmlns="http://www.w3.org/2000/svg" width="511" height="512" viewBox="0 0 511 512" version="1.1">
	<path d="M 0 70.059 C 0 123.703, 0.277 139.947, 1.182 139.387 C 2.232 138.739, 60.625 95.204, 63.750 92.741 C 64.438 92.199, 65 91.996, 65 92.290 C 65 92.688, 31.016 118.525, 0.175 141.574 C -0.004 141.708, -0.004 143.003, 0.175 144.452 C 0.479 146.920, 4.247 144.271, 59.786 102.545 C 92.394 78.047, 120.969 57.082, 123.286 55.956 L 127.500 53.908 125 56.090 L 122.500 58.272 125.907 57.786 L 129.314 57.300 123.407 62.763 C 117.588 68.145, 118.203 67.844, 130 59.538 C 145.639 48.527, 120.241 68.805, 58.182 116.880 C 50.857 122.554, 45.100 127.433, 45.389 127.722 C 46.472 128.806, 33.111 136.478, 10.750 147.612 L 0 152.965 0 164.525 L 0 176.084 22.112 164.792 C 37.690 156.836, 44.369 153.887, 44.715 154.811 C 45.113 155.870, 45.524 155.848, 46.854 154.695 C 48.898 152.923, 96.190 128.984, 97.528 129.044 C 98.455 129.085, 112.517 149, 111.620 149 C 111.383 149, 108.791 145.737, 105.860 141.750 C 99.647 133.298, 98.174 131.934, 95.612 132.260 C 92.938 132.600, 53.017 165.247, 53.500 166.699 C 53.719 167.359, 53.344 167.686, 52.667 167.426 C 51.990 167.166, 49.157 168.876, 46.373 171.227 C 43.589 173.577, 32.016 183.065, 20.656 192.312 L -0 209.124 -0 218.698 L 0 228.271 7.665 237.886 C 11.881 243.174, 15.455 247.662, 15.608 247.859 C 15.760 248.057, 20.818 243.845, 26.847 238.501 L 37.809 228.783 30.405 219.686 C 26.332 214.683, 23 210.278, 23 209.897 C 23 209.294, 60.098 194, 61.562 194 C 61.868 194, 61.824 194.476, 61.464 195.058 C 61.105 195.639, 61.997 197.908, 63.447 200.100 L 66.084 204.084 69.902 200.792 C 88.388 184.854, 95.770 178.388, 103.718 171.177 C 108.788 166.576, 113.361 162.967, 113.881 163.156 C 114.400 163.345, 110.844 166.867, 105.977 170.981 C 101.111 175.096, 97.239 178.572, 97.372 178.706 C 97.506 178.840, 102.765 176.926, 109.058 174.452 C 119.729 170.258, 121.211 169.325, 131.064 160.588 L 141.627 151.220 171.372 137.683 C 187.732 130.238, 200.979 124.465, 200.809 124.854 C 200.639 125.243, 194.425 131.144, 187 137.968 C 179.575 144.792, 173.358 150.716, 173.185 151.132 C 173.012 151.549, 173.365 152.814, 173.970 153.945 C 174.949 155.773, 174.784 156, 172.476 156 C 170.656 156, 170.112 155.627, 170.653 154.750 C 172.009 152.551, 163.808 159.599, 153.500 169.490 C 148 174.767, 144.483 178.616, 145.684 178.042 C 146.886 177.469, 148.403 177, 149.057 177 C 151.575 177, 148.019 179.598, 143.059 181.382 C 140.277 182.382, 138 183.412, 138 183.670 C 138 183.928, 139.273 186.021, 140.830 188.320 C 146.245 196.319, 144.347 195.752, 138.415 187.598 L 136.330 184.732 126.121 194.530 C 120.507 199.919, 116.275 204.592, 116.716 204.914 C 117.158 205.236, 118.399 207.178, 119.475 209.229 C 121.310 212.726, 121.558 212.865, 123.466 211.466 C 124.585 210.646, 127.633 208.968, 130.240 207.737 C 133.463 206.216, 142.324 198.457, 157.920 183.500 C 170.536 171.400, 186.515 156.168, 193.428 149.652 C 200.341 143.135, 205.747 137.400, 205.442 136.906 C 205.137 136.412, 206.150 135.456, 207.694 134.780 C 209.237 134.104, 216.201 128.139, 223.169 121.525 L 235.838 109.500 272.086 93.170 C 303.578 78.982, 308.615 76.991, 310.485 77.992 C 312.342 78.986, 315.783 77.745, 335.569 68.949 C 348.181 63.342, 360.462 57.905, 362.859 56.866 C 366.970 55.085, 366.456 55.782, 353.859 69.069 C 332.808 91.275, 329 95.419, 329 96.123 C 329 96.952, 339.352 114.515, 341.038 116.545 C 341.724 117.372, 342.518 117.815, 342.803 117.531 C 343.088 117.246, 343.949 117.910, 344.717 119.006 C 346.330 121.309, 348.484 121.702, 347.655 119.543 C 347.210 118.382, 347.574 118.268, 349.444 118.979 C 352.921 120.301, 355.340 118.203, 354.446 114.641 C 354.062 113.111, 352.936 111.353, 351.944 110.733 C 350.583 109.883, 350.377 109.164, 351.105 107.803 C 352.035 106.066, 354.212 105.215, 353.798 106.750 C 353.687 107.162, 354.626 109.473, 355.886 111.883 L 358.177 116.267 364.726 109.883 L 371.276 103.500 365.638 110.445 C 362.537 114.264, 360 117.726, 360 118.137 C 360 118.548, 361.913 119.023, 364.250 119.193 L 368.500 119.500 362 121.829 C 353.810 124.765, 352.871 125.257, 351.589 127.289 C 350.847 128.466, 350.884 129.284, 351.717 130.117 C 353.143 131.543, 357.936 129.833, 360.522 126.976 C 361.438 125.963, 362.782 125.363, 363.508 125.641 C 365.128 126.263, 383.938 119.378, 385.957 117.424 C 387.095 116.323, 387.150 115.750, 386.208 114.808 C 385.265 113.865, 384.038 114.069, 380.609 115.735 C 376.215 117.870, 369 119.701, 369 118.681 C 369 118.133, 374.821 115.234, 380.750 112.830 C 382.537 112.105, 384 111.159, 384 110.727 C 384 109.042, 377.915 98, 376.986 98 C 376.444 98, 376 97.413, 376 96.696 C 376 95.978, 374.641 93.249, 372.981 90.631 C 371.321 88.013, 370.222 85.450, 370.540 84.935 C 371.587 83.242, 374 83.961, 374 85.966 C 374 87.047, 374.754 89.512, 375.675 91.444 C 377.072 94.375, 377.595 94.752, 378.838 93.728 C 380.131 92.662, 380.168 92.798, 379.123 94.761 C 378.077 96.723, 378.321 97.606, 380.972 101.459 C 384.867 107.121, 385.696 107.585, 388.073 105.433 C 389.943 103.742, 390.124 103.768, 392.587 106.082 C 396.493 109.751, 399.370 108.930, 412.636 100.362 C 415.460 98.538, 421.288 93.171, 425.586 88.437 C 432.703 80.598, 433.518 79.988, 434.704 81.611 C 435.716 82.993, 436.275 83.125, 437.204 82.196 C 437.862 81.538, 439.696 81, 441.279 81 C 443.597 81, 446.029 79.101, 453.765 71.250 C 464.875 59.975, 464.028 61.413, 443.631 88.467 C 434.793 100.191, 430.487 106.683, 431.241 107.149 C 431.980 107.606, 431.443 108.297, 429.746 109.070 C 426.025 110.765, 423.673 116.010, 425.032 119.583 C 425.822 121.663, 425.763 122.534, 424.789 123.152 C 423.030 124.268, 420.248 124.203, 417.988 122.994 C 416.647 122.276, 414.791 122.434, 411.517 123.546 C 408.992 124.403, 405.705 125.274, 404.213 125.482 C 402.721 125.690, 396.100 127.660, 389.500 129.859 C 368.147 136.975, 357 141.590, 357 143.313 C 357 144.266, 361.426 152.382, 365.669 159.210 L 367.975 162.920 387.598 156.252 C 406.516 149.823, 407.272 149.651, 408.611 151.483 C 410.605 154.209, 410.330 155.121, 407.713 154.464 C 405.454 153.897, 400.980 158.910, 385.369 179.500 C 380.824 185.494, 380.829 185.460, 383.808 189.625 C 385.332 191.756, 388.750 197.227, 391.403 201.781 C 395.359 208.572, 396.570 209.954, 398.134 209.458 C 399.182 209.125, 405.218 207.545, 411.546 205.947 C 428.151 201.753, 434 199.963, 434 199.076 C 434 198.646, 431.777 194.515, 429.059 189.897 C 419.164 173.078, 417 169.153, 417 168.020 C 417 166.777, 415.460 167.111, 408.230 169.923 C 404.399 171.414, 396 179.702, 396 181.992 C 396 182.418, 395.064 183.011, 393.921 183.310 C 390.588 184.182, 390.489 184.341, 408.717 159.694 L 416.934 148.584 461.717 133.424 C 486.348 125.086, 507.512 117.949, 508.750 117.565 C 512.492 116.401, 511.501 119.022, 503.807 130.639 C 499.851 136.613, 489.288 152.905, 480.335 166.845 L 464.056 192.190 466.152 196.345 C 468.080 200.168, 475.188 213.320, 483.664 228.750 C 485.553 232.188, 486.895 235, 486.648 235 C 485.962 235, 482.316 228.878, 474.029 213.814 C 469.888 206.287, 465.600 198.935, 464.500 197.477 L 462.500 194.825 457.250 202.969 C 454.363 207.448, 452 211.762, 452 212.556 C 452 213.350, 451.560 214, 451.023 214 C 450.486 214, 449.357 215.051, 448.515 216.336 C 447.068 218.545, 447.264 219.185, 452.097 228.086 C 454.909 233.264, 459.026 240.612, 461.245 244.415 C 464.408 249.834, 465.047 251.674, 464.198 252.915 C 463.602 253.787, 458.333 262.292, 452.489 271.815 C 445.223 283.657, 442.162 289.505, 442.807 290.315 C 444.527 292.474, 458.040 316.294, 457.724 316.609 C 457.553 316.780, 453.877 311.089, 449.555 303.964 C 442.874 292.952, 441.471 291.194, 440.203 292.246 C 438.934 293.300, 438.818 293.149, 439.425 291.235 C 439.937 289.622, 439.241 287.417, 436.962 283.434 C 435.215 280.380, 434.059 277.608, 434.393 277.274 C 435.130 276.536, 434.990 276.359, 438.479 282.446 C 441.940 288.484, 440.389 290.304, 457.945 259.600 L 461.318 253.700 455.909 254.315 L 450.500 254.929 455.500 253.380 C 458.250 252.528, 460.876 251.471, 461.335 251.030 C 462.196 250.205, 449.863 226.494, 447.401 224.238 C 446.644 223.544, 446.191 223.230, 446.396 223.539 C 446.601 223.849, 445.641 225.317, 444.262 226.801 C 439.185 232.267, 430.619 244.672, 427.821 250.610 C 425.523 255.487, 425.137 257.229, 425.904 259.248 C 426.778 261.545, 426.597 261.831, 423.933 262.363 C 422.320 262.686, 421 263.318, 421 263.768 C 421 264.218, 424.656 270.642, 429.125 278.043 C 433.593 285.444, 438.480 293.750, 439.985 296.500 C 441.490 299.250, 444.823 305.048, 447.392 309.385 C 449.961 313.722, 451.905 317.428, 451.713 317.621 C 451.520 317.813, 448.505 313.232, 445.011 307.441 C 439.829 298.849, 438.424 297.149, 437.377 298.205 C 435.199 300.401, 421.122 323.388, 421.540 324.065 C 421.892 324.635, 439.409 321.926, 453.940 319.055 C 456.932 318.463, 459.675 318.322, 460.037 318.740 C 460.588 319.378, 479.268 352.462, 480.792 355.500 C 482.677 359.258, 478.075 352.555, 471.179 341.500 C 463.549 329.266, 455.004 318.206, 455.001 320.559 C 455.001 321.141, 456.570 324.224, 458.488 327.410 L 461.976 333.203 449.626 355.351 C 442.834 367.533, 436.298 379.425, 435.104 381.778 L 432.931 386.055 435.216 385.559 C 439.233 384.687, 452.275 383.092, 459.500 382.589 C 469.752 381.876, 435.331 387.071, 410 390.061 C 405.325 390.613, 399.117 391.435, 396.206 391.888 C 391.462 392.625, 390.760 392.495, 389.456 390.633 C 387.520 387.870, 387.619 386.443, 389.750 386.361 C 390.712 386.324, 396 385.997, 401.500 385.635 C 407.480 385.242, 410.696 385.329, 409.500 385.854 L 407.500 386.730 409.500 387.154 C 413.292 387.957, 415.985 386.761, 418.103 383.333 C 420.716 379.105, 421.766 379.618, 419.494 384.012 L 417.840 387.210 423.146 386.480 C 430.294 385.497, 432.273 383.980, 436.601 376.164 C 446.400 358.467, 457 338.877, 457 338.462 C 457 337.445, 455.050 338.092, 453.527 339.616 C 452.433 340.710, 450.969 341.044, 448.997 340.649 C 447.353 340.321, 444.542 340.711, 442.542 341.547 C 439.406 342.857, 439 342.856, 439 341.532 C 439 339.108, 434.472 338.672, 427.251 340.401 C 423.538 341.290, 418.032 342.356, 415.015 342.770 L 409.529 343.523 398.824 361.512 C 392.936 371.405, 386.451 382.112, 384.414 385.304 L 380.709 391.109 388.429 402.554 C 395.462 412.982, 398 415.751, 398 413 C 398 412.450, 397.438 411.986, 396.750 411.970 C 396.063 411.953, 396.297 411.475, 397.271 410.908 C 398.245 410.341, 398.744 409.342, 398.380 408.689 C 398.016 408.035, 398.501 408.236, 399.458 409.134 C 401.107 410.684, 401.108 410.906, 399.471 413.405 C 397.774 415.993, 397.808 416.137, 401.351 421.474 C 403.335 424.462, 404.596 427.131, 404.153 427.405 C 402.768 428.261, 399 426.832, 399 425.450 C 399 423.328, 393.149 423.954, 392.452 426.152 C 392.129 427.168, 391.356 428, 390.733 428 C 389.927 428, 389.946 427.654, 390.800 426.800 C 391.460 426.140, 392 424.713, 392 423.629 C 392 422.545, 392.716 420.867, 393.590 419.900 C 395.532 417.754, 394.673 414.348, 391.973 413.491 C 389.165 412.600, 369.970 415.001, 366.750 416.647 C 365.237 417.419, 364 418.565, 364 419.192 C 364 419.820, 363.739 420.072, 363.419 419.752 C 363.099 419.433, 363.340 418.233, 363.954 417.086 C 364.696 415.700, 364.723 415, 364.035 415 C 363.466 415, 363 414.523, 363 413.941 C 363 413.359, 363.451 413.161, 364.002 413.501 C 365.128 414.197, 388.865 412.074, 390.650 411.117 C 391.389 410.720, 389.594 407.291, 385.615 401.500 C 380.475 394.019, 379.015 392.528, 376.966 392.666 C 367.770 393.284, 343 396.497, 343 397.071 C 343 397.457, 340.989 398.075, 338.530 398.443 L 334.060 399.114 339.195 406.307 C 342.019 410.263, 345.016 414.063, 345.856 414.750 C 346.695 415.438, 346.959 416.007, 346.441 416.015 C 345.924 416.024, 346.175 416.457, 347 416.979 C 347.825 417.500, 348.539 418.281, 348.586 418.714 C 348.787 420.538, 350.286 423, 351.197 423 C 351.737 423, 353.001 424.013, 354.005 425.250 L 355.830 427.500 358.285 425.198 L 360.741 422.895 362.751 426.302 L 364.761 429.709 360.505 430.605 L 356.249 431.500 364.875 443.661 C 371.077 452.406, 373.725 455.426, 374.300 454.411 C 375.587 452.140, 377.227 452.708, 376 455 C 374.214 458.337, 375.691 457.237, 377.989 453.518 C 379.172 451.603, 379.814 449.509, 379.416 448.864 C 378.954 448.117, 379.125 447.959, 379.886 448.429 C 380.733 448.953, 380.911 448.489, 380.497 446.834 C 379.991 444.809, 380.306 444.473, 382.882 444.296 L 385.851 444.092 382.274 450.796 C 380.307 454.483, 379.050 457.178, 379.480 456.785 C 379.911 456.392, 381.152 456.546, 382.239 457.128 C 383.640 457.878, 384.533 457.867, 385.307 457.093 C 385.908 456.492, 387.224 456, 388.231 456 C 389.239 456, 390.322 455.325, 390.638 454.500 C 390.955 453.675, 391.759 453, 392.426 453 C 393.092 453, 396.756 447.506, 400.569 440.791 C 404.381 434.077, 408.785 426.314, 410.356 423.541 C 411.927 420.769, 414.901 415.575, 416.964 412 C 419.027 408.425, 422.629 401.788, 424.969 397.250 C 427.309 392.713, 429.661 389, 430.197 389 C 430.734 389, 429.617 391.813, 427.717 395.250 C 425.817 398.688, 423.019 403.750, 421.500 406.500 C 408.754 429.567, 395.815 453.223, 391.279 461.750 L 385.827 472 390.354 472 C 392.845 472, 395.160 472.450, 395.500 473 C 395.840 473.550, 397.891 474, 400.059 474 C 402.227 474, 404 473.550, 404 473 C 404 472.450, 404.477 472, 405.059 472 C 405.641 472, 405.796 472.522, 405.402 473.159 C 404.871 474.019, 406.473 474.150, 411.593 473.666 C 415.392 473.308, 421.789 473.011, 425.809 473.007 C 430.425 473.003, 432.890 472.632, 432.500 472 C 431.569 470.494, 433.588 470.799, 434.884 472.360 C 435.823 473.492, 433.453 473.839, 420.756 474.428 C 412.365 474.818, 403.700 475.302, 401.500 475.504 C 399.300 475.706, 391.200 476.145, 383.500 476.480 C 375.800 476.815, 367.192 477.316, 364.370 477.593 C 360.608 477.963, 358.839 477.696, 357.734 476.591 C 356.427 475.284, 353.795 475.216, 337.864 476.081 C 327.764 476.629, 319.129 477.184, 318.676 477.314 C 318.222 477.443, 319.745 479.701, 322.060 482.330 C 324.374 484.960, 326.812 486.902, 327.478 486.647 C 328.257 486.348, 328.548 486.951, 328.296 488.341 C 328.061 489.641, 328.834 491.494, 330.241 493 C 331.526 494.375, 335.005 498.988, 337.972 503.250 C 342.646 509.963, 345.914 512.800, 346.036 510.250 C 346.056 509.837, 347.217 508.150, 348.618 506.500 L 351.163 503.500 349.582 506.700 C 348.712 508.461, 348 510.373, 348 510.950 C 348 511.647, 354.522 512, 367.402 512 L 386.804 512 388.995 508.750 C 391.051 505.701, 391.169 506.066, 389.486 510.258 C 388.816 511.925, 391.940 512.002, 450.140 511.758 L 511.500 511.500 511.677 255.750 L 511.854 -0 255.927 -0 L 0 0 0 70.059 M 0.473 70.500 C 0.474 109, 0.598 124.605, 0.750 105.177 C 0.902 85.749, 0.901 54.249, 0.749 35.177 C 0.598 16.105, 0.473 32, 0.473 70.500 M 175.978 51.949 C 173.033 54.151, 163 58.136, 163 57.104 C 163 56.717, 163.563 55.805, 164.250 55.078 C 165.281 53.987, 165.111 53.955, 163.280 54.897 C 161.002 56.068, 147.438 57.104, 146.511 56.178 C 146.228 55.894, 146.784 54.734, 147.748 53.598 C 148.884 52.260, 148.973 51.914, 148 52.615 C 132.979 63.433, 56.750 121.984, 53.500 125.200 C 52.085 126.601, 51.938 127.077, 53 126.829 C 53.825 126.637, 71.288 118.032, 91.807 107.708 C 123.559 91.733, 129.028 88.664, 128.534 87.106 C 127.755 84.653, 131.621 81.798, 146.099 74.128 C 158.176 67.730, 160.866 67.008, 163.357 69.500 C 164.855 70.998, 167 71.531, 167 70.404 C 167 70.077, 166.111 68.560, 165.024 67.034 L 163.048 64.258 169.227 58.879 C 172.626 55.921, 176.328 52.727, 177.453 51.783 C 180.210 49.471, 179.130 49.592, 175.978 51.949 M 180.225 56.704 C 176.224 59.773, 173.127 62.460, 173.342 62.675 C 173.557 62.891, 177.506 60.749, 182.117 57.915 C 190.242 52.921, 194.764 49.592, 190.316 51.878 C 187.614 53.266, 186.693 53.306, 187.500 52 C 188.460 50.446, 187.983 50.754, 180.225 56.704 M 86.872 75.750 C 85.603 77.369, 85.650 77.390, 87.500 76.033 C 88.600 75.226, 89.688 74.439, 89.917 74.283 C 90.146 74.127, 89.863 74, 89.289 74 C 88.715 74, 87.627 74.787, 86.872 75.750 M 78.872 81.750 C 77.629 83.336, 77.664 83.371, 79.250 82.128 C 80.916 80.821, 81.445 80, 80.622 80 C 80.415 80, 79.627 80.787, 78.872 81.750 M 74.872 84.750 C 73.629 86.336, 73.664 86.371, 75.250 85.128 C 76.916 83.821, 77.445 83, 76.622 83 C 76.415 83, 75.627 83.787, 74.872 84.750 M 319.500 87.526 C 317.300 88.881, 315.852 89.992, 316.282 89.995 C 317.846 90.005, 323.773 87.176, 324.437 86.102 C 325.506 84.372, 323.842 84.852, 319.500 87.526 M 70.872 87.750 C 69.629 89.336, 69.664 89.371, 71.250 88.128 C 72.916 86.821, 73.445 86, 72.622 86 C 72.415 86, 71.627 86.787, 70.872 87.750 M 185 86.483 C 185 86.813, 185.956 88.077, 187.123 89.292 L 189.247 91.500 188.118 89.306 C 187.001 87.134, 185 85.323, 185 86.483 M 66.872 90.750 C 65.629 92.336, 65.664 92.371, 67.250 91.128 C 68.916 89.821, 69.445 89, 68.622 89 C 68.415 89, 67.627 89.787, 66.872 90.750 M 309.500 116.630 C 300.700 125.774, 289.598 137.569, 284.829 142.841 C 277.400 151.053, 276.297 152.718, 277.134 154.463 C 278.077 156.430, 278.058 156.435, 276.591 154.608 C 275.139 152.799, 274.882 152.930, 270.786 157.572 C 268.429 160.243, 263.462 165.734, 259.750 169.774 C 256.038 173.813, 253 177.767, 253 178.559 C 253 179.352, 252.266 180, 251.368 180 C 250.470 180, 248.228 180.932, 246.385 182.071 L 243.035 184.142 248.154 191.821 C 250.969 196.044, 253.587 199.853, 253.970 200.284 C 254.354 200.715, 262.393 198.402, 271.834 195.143 C 281.275 191.885, 289 189.417, 289 189.659 C 289 190.282, 270.617 211.015, 267.546 213.855 C 264.605 216.575, 264.559 216.833, 266.545 219.459 C 268.316 221.801, 266.425 223.565, 284.182 203 L 296.703 188.500 310.101 184.133 C 317.471 181.732, 324.850 178.963, 326.500 177.981 C 328.150 176.999, 336.385 173.835, 344.801 170.950 C 357.042 166.754, 359.982 165.395, 359.505 164.153 C 359.178 163.299, 357.017 159.559, 354.705 155.841 C 349.953 148.202, 349.292 147.969, 341 151 C 337.991 152.100, 333.976 153, 332.079 153 C 330.095 153, 325.769 154.480, 321.894 156.486 C 318.189 158.403, 315.009 159.569, 314.829 159.077 C 314.648 158.584, 312.533 158.851, 310.129 159.669 C 307.724 160.488, 305.379 160.779, 304.918 160.318 C 304.456 159.856, 307.323 156.047, 311.289 151.854 C 317.302 145.496, 319.414 143.941, 324 142.498 C 327.761 141.314, 330.994 139.321, 334.227 136.194 C 336.827 133.678, 338.795 131.462, 338.601 131.267 C 338.406 131.073, 335.856 131.823, 332.933 132.933 C 330.011 134.044, 327.423 134.757, 327.184 134.517 C 326.944 134.277, 329.505 131.073, 332.874 127.396 C 336.243 123.719, 339 120.269, 339 119.729 C 339 118.614, 326.769 100.086, 326 100.037 C 325.725 100.019, 318.300 107.486, 309.500 116.630 M 392.250 111.303 C 387.465 113.599, 386.546 115.591, 390.750 114.556 C 392.262 114.184, 394.760 113.627, 396.300 113.319 C 398.122 112.954, 398.995 112.218, 398.800 111.212 C 398.368 108.984, 397.044 109.002, 392.250 111.303 M 346.569 112.923 C 344.660 115.033, 345.377 115.681, 347.872 114.100 C 348.626 113.622, 349.065 112.695, 348.846 112.039 C 348.590 111.269, 347.784 111.582, 346.569 112.923 M 119 117.378 C 119 117.585, 119.685 118.324, 120.523 119.019 C 121.796 120.076, 121.943 120.014, 121.416 118.641 C 120.878 117.240, 119 116.257, 119 117.378 M 263 135.413 C 263 136.047, 266.435 141.804, 270.358 147.743 C 272.625 151.176, 274 151.891, 274 149.638 C 274 148.888, 275.350 146.576, 277 144.500 C 278.816 142.215, 280 139.550, 280 137.749 C 280 134.913, 279.847 134.806, 276.750 135.480 C 272.128 136.485, 266.793 136.535, 264.750 135.593 C 263.788 135.149, 263 135.068, 263 135.413 M 0.232 144 C 0.232 145.925, 0.438 146.713, 0.689 145.750 C 0.941 144.787, 0.941 143.213, 0.689 142.250 C 0.438 141.287, 0.232 142.075, 0.232 144 M 351.898 147.233 C 352.413 148.586, 354.671 152.695, 356.917 156.364 C 359.163 160.033, 361 163.477, 361 164.018 C 361 165.208, 363.018 165.275, 364.800 164.145 C 365.788 163.518, 364.856 161.239, 360.924 154.660 C 358.078 149.897, 355.392 146, 354.956 146 C 354.520 146, 353.443 145.724, 352.563 145.386 C 351.226 144.873, 351.117 145.176, 351.898 147.233 M 480.693 148.181 C 478.466 148.993, 477.950 149.735, 478.193 151.775 C 478.562 154.862, 481 156.062, 481 153.156 C 481 152.050, 482.186 150.212, 483.635 149.073 C 486.444 146.863, 485.278 146.509, 480.693 148.181 M 465 152.957 C 460.325 154.499, 452.450 156.976, 447.500 158.462 C 442.550 159.948, 436.803 161.801, 434.730 162.582 C 432.656 163.362, 429.619 164, 427.980 164 C 425.938 164, 425 164.494, 425 165.571 C 425 166.436, 424.363 167.780, 423.584 168.558 C 421.487 170.656, 425.560 181.090, 432.177 190.567 C 437.369 198.002, 437.524 198.125, 440.981 197.515 C 446.690 196.507, 447.924 195.967, 447.435 194.691 C 447.180 194.027, 448.890 190.495, 451.236 186.842 C 453.581 183.189, 456.850 177.475, 458.500 174.143 C 460.530 170.044, 462.101 168.071, 463.357 168.042 C 464.688 168.012, 465.032 168.473, 464.573 169.670 C 464.220 170.591, 464.508 171.706, 465.216 172.155 C 466.179 172.765, 466.089 172.973, 464.857 172.985 C 463.040 173.002, 462.049 174.794, 462.747 176.799 C 463.183 178.052, 472.960 164.462, 472.987 162.564 C 472.994 162.050, 473.947 160.621, 475.105 159.388 C 476.262 158.156, 476.897 156.642, 476.515 156.024 C 475.781 154.836, 474.623 155.978, 470 162.447 C 468.625 164.371, 467.147 165.957, 466.715 165.972 C 465.867 166.002, 466.064 165.637, 471.955 156.250 C 474.113 152.813, 475.343 150.034, 474.689 150.076 C 474.035 150.118, 469.675 151.414, 465 152.957 M 0.382 164.500 C 0.384 171.100, 0.546 173.670, 0.741 170.211 C 0.937 166.752, 0.936 161.352, 0.738 158.211 C 0.540 155.070, 0.380 157.900, 0.382 164.500 M 37.277 159.750 C 34.569 161.813, 25.299 169.112, 16.677 175.971 L 1 188.441 1 195.256 C 1 201.679, 1.111 202.011, 2.930 201.037 C 5.407 199.712, 9 194.680, 9 192.537 C 9 191.627, 9.383 191.119, 9.851 191.408 C 10.989 192.111, 16.914 188.082, 28.094 179 C 38.396 170.632, 38.246 168.237, 27.809 174.454 C 24.465 176.446, 21.319 177.940, 20.818 177.773 C 20.317 177.606, 25.317 172.976, 31.929 167.484 C 38.541 161.993, 43.962 157.162, 43.975 156.750 C 44.026 155.223, 42.073 156.097, 37.277 159.750 M 49.564 160.293 C 49.940 161.279, 50.499 161.834, 50.807 161.526 C 51.115 161.219, 50.808 160.412, 50.124 159.733 C 49.136 158.753, 49.022 158.868, 49.564 160.293 M 233.404 162.390 C 232.716 164.183, 234.595 167.107, 238.318 170.036 C 241.663 172.666, 241.748 171.145, 238.541 166.064 C 235.575 161.367, 234.180 160.369, 233.404 162.390 M 82.500 164 C 81.181 164.567, 81.011 164.878, 82 164.914 C 82.825 164.945, 84.175 164.533, 85 164 C 86.828 162.819, 85.249 162.819, 82.500 164 M 166.772 167.349 C 159.574 170.284, 157.628 172.034, 159.960 173.475 C 161.237 174.265, 171.993 168.780, 174.405 166.109 C 176.838 163.415, 176.142 163.528, 166.772 167.349 M 37 166.826 C 37 167.280, 38.125 168.708, 39.500 170 L 42 172.349 42 169.174 C 42 166.455, 41.642 166, 39.500 166 C 38.125 166, 37 166.372, 37 166.826 M 404.500 176 C 404.160 176.550, 404.584 177, 405.441 177 C 406.298 177, 407 176.550, 407 176 C 407 175.450, 406.577 175, 406.059 175 C 405.541 175, 404.840 175.450, 404.500 176 M 2.861 183.059 L 0.500 185.119 3.250 183.444 C 4.763 182.523, 6 181.597, 6 181.385 C 6 180.604, 5.165 181.050, 2.861 183.059 M 80.305 193.193 C 73.070 199.412, 67.129 204.725, 67.102 205 C 67.076 205.275, 68.340 207.051, 69.912 208.947 L 72.770 212.394 85.635 201.028 C 92.711 194.777, 98.600 189.401, 98.721 189.081 C 98.843 188.762, 97.709 187.012, 96.201 185.193 L 93.459 181.887 80.305 193.193 M 222.800 190.387 C 214.164 193.323, 205.546 196.462, 203.649 197.362 C 201.751 198.263, 199.884 199, 199.500 199 C 199.116 199, 197.384 199.641, 195.651 200.424 C 193.918 201.207, 183.725 204.747, 173 208.292 L 153.500 214.736 144.261 223.870 L 135.021 233.004 141.604 241.752 C 145.225 246.563, 149.563 252.637, 151.243 255.250 C 152.924 257.863, 154.640 260, 155.058 260 C 155.475 260, 164.255 251.222, 174.569 240.494 C 184.883 229.766, 193.563 221.230, 193.858 221.525 C 194.153 221.820, 190.706 225.769, 186.197 230.302 C 181.689 234.834, 178 238.869, 178 239.269 C 178 239.668, 179.617 242.246, 181.594 244.998 C 183.570 247.749, 184.808 249.997, 184.344 249.993 C 183.636 249.987, 181.180 246.851, 177.779 241.611 C 177.332 240.923, 173.080 244.460, 166.604 250.908 L 156.149 261.315 159.575 265.802 C 161.459 268.269, 163 270.673, 163 271.144 C 163 271.615, 164.063 272, 165.362 272 C 167.169 272, 173.902 265.359, 194.003 243.750 C 208.456 228.213, 221.261 214.579, 222.459 213.454 C 223.657 212.329, 230.988 209.254, 238.752 206.619 L 252.867 201.830 251.180 199.165 C 245.195 189.712, 241.508 185.003, 240.108 185.024 C 239.224 185.038, 231.435 187.451, 222.800 190.387 M 339.435 205.138 C 331.266 215.237, 320.027 229.125, 314.458 236 C 302.776 250.421, 298.606 256.638, 300.025 257.515 C 300.569 257.852, 301.295 257.395, 301.638 256.502 C 302.168 255.121, 302.699 255.295, 305.167 257.660 L 308.072 260.443 315.766 252.521 C 321.153 246.975, 323.377 243.969, 323.184 242.496 C 322.943 240.655, 326.504 236.001, 327.320 237.089 C 327.489 237.315, 328.568 238.743, 329.718 240.263 L 331.808 243.026 334.916 238.799 C 336.626 236.475, 337.874 234.123, 337.691 233.574 C 337.508 233.025, 338.896 231.037, 340.775 229.158 L 344.192 225.741 340.596 226.416 C 336.103 227.259, 336.073 226.368, 340.398 220.702 C 342.267 218.254, 344.326 215.260, 344.973 214.050 C 345.621 212.839, 346.972 211.028, 347.974 210.026 C 348.976 209.024, 350.113 206.763, 350.499 205.003 C 351.010 202.677, 351.503 202.103, 352.301 202.901 C 353.785 204.385, 355.804 204.294, 355.664 202.750 C 355.602 202.063, 355.899 199.691, 356.324 197.481 C 356.855 194.723, 356.657 192.413, 355.692 190.119 L 354.287 186.777 339.435 205.138 M 378.676 188.658 C 377.370 189.964, 378.030 192.094, 381.250 196.957 C 383.038 199.657, 385.720 203.921, 387.212 206.433 C 390.322 211.672, 392.941 212.753, 390.402 207.750 C 389.495 205.963, 387.287 202.436, 385.495 199.913 C 383.242 196.741, 382.500 194.858, 383.088 193.808 C 383.675 192.758, 383.229 191.625, 381.644 190.136 C 380.383 188.951, 379.048 188.286, 378.676 188.658 M 70 190.893 C 70 191.384, 70.652 192.036, 71.449 192.342 C 72.418 192.714, 72.714 192.418, 72.342 191.449 C 71.735 189.867, 70 189.455, 70 190.893 M 450.500 194 C 447.952 195.095, 450.581 195.095, 454 194 C 456.010 193.356, 456.108 193.194, 454.500 193.170 C 453.400 193.154, 451.600 193.527, 450.500 194 M 370.843 199.163 C 368.454 202.003, 361.666 210.665, 355.758 218.413 C 324.780 259.039, 316.097 270.833, 314.698 274.181 C 313.207 277.749, 313.246 277.997, 316.004 282.345 L 318.847 286.828 316.754 288.664 C 314.908 290.284, 314.733 290.301, 315.275 288.813 C 315.674 287.717, 315.295 286.969, 314.195 286.679 C 312.649 286.271, 312.654 286.222, 314.250 286.116 C 316.517 285.966, 316.470 284.736, 314.115 282.604 C 312.318 280.978, 312.185 281.029, 311.252 283.707 C 310.342 286.318, 309.684 286.607, 301.886 287.822 C 291.137 289.498, 279.987 292.315, 282.250 292.784 C 283.212 292.983, 287.445 292.434, 291.656 291.563 C 301.254 289.578, 302.359 290.168, 293.286 292.433 C 289.554 293.364, 285.503 294.773, 284.285 295.563 C 281.769 297.196, 280.625 297.416, 281.430 296.113 C 282.405 294.536, 279.103 292.753, 276.259 293.322 C 270.748 294.423, 262.897 296.572, 262.711 297.030 C 262.303 298.040, 271.363 310, 272.536 310 C 273.222 310, 274.042 311.012, 274.358 312.250 C 275.011 314.804, 292.534 340.331, 293.969 340.817 C 294.484 340.992, 296.991 338.292, 299.542 334.817 C 303.761 329.069, 306 326.853, 306 328.426 C 306 328.752, 303.463 332.450, 300.363 336.642 L 294.725 344.265 300.165 343.585 C 306.116 342.842, 307.134 343.433, 310.348 349.500 C 311.221 351.150, 312.738 353.483, 313.718 354.685 L 315.500 356.870 325.907 354.945 C 331.631 353.885, 336.544 352.790, 336.824 352.510 C 337.104 352.229, 334.446 351.978, 330.917 351.952 L 324.500 351.904 327.987 350.199 C 332.325 348.077, 333.292 345, 329.620 345 C 328.054 345, 326.410 345.965, 325.297 347.536 C 321.098 353.464, 319.747 355.081, 319.337 354.670 C 319.097 354.430, 320.086 352.494, 321.534 350.367 L 324.166 346.500 316.541 345.626 C 311.790 345.082, 309.053 344.340, 309.281 343.658 C 309.608 342.677, 321.955 339.945, 332.500 338.521 C 338.504 337.710, 342 336.902, 342 336.325 C 342 336.041, 341.051 334.476, 339.891 332.848 C 337.836 329.961, 337.731 329.932, 335.737 331.693 C 333.702 333.490, 333.700 333.485, 335.348 330.920 C 336.965 328.405, 336.907 328.199, 333.003 322.626 C 330.801 319.483, 328.986 316.594, 328.969 316.206 C 328.952 315.818, 326.516 312.350, 323.555 308.500 C 320.322 304.295, 318.531 301.127, 319.070 300.567 C 320.171 299.421, 319.152 298.146, 329 313 C 333.558 319.875, 337.436 325.676, 337.619 325.892 C 337.801 326.107, 338.846 325.207, 339.942 323.892 C 341.037 322.576, 341.948 322.007, 341.967 322.628 C 341.985 323.248, 341.325 324.315, 340.500 325 C 338.432 326.717, 338.605 327.954, 341.512 332.232 C 343.038 334.479, 344.570 335.719, 345.417 335.394 C 346.346 335.037, 347.027 335.845, 347.461 337.822 C 348.434 342.252, 353.830 350.279, 355.424 349.668 C 356.313 349.326, 356.622 349.729, 356.330 350.847 C 355.856 352.659, 369.419 373.798, 375.194 380.250 C 378.739 384.210, 381.410 385.260, 380.281 382.250 C 379.707 380.718, 379.835 380.671, 381.313 381.872 C 382.242 382.629, 383 382.784, 383 382.218 C 383 381.075, 371.386 362.821, 360.222 346.417 C 356.219 340.535, 353.081 335.586, 353.247 335.419 C 353.414 335.252, 356.411 334.655, 359.908 334.092 C 363.404 333.529, 366.371 332.941, 366.500 332.784 C 366.629 332.628, 369.260 328.563, 372.345 323.750 C 375.431 318.938, 378.446 315, 379.046 315 C 380.138 315, 378.972 316.879, 371.711 326.828 C 369.572 329.758, 367.993 332.327, 368.202 332.536 C 368.411 332.745, 372.614 332.237, 377.541 331.406 C 382.469 330.576, 389.425 329.473, 393 328.956 C 408.238 326.751, 418.577 324.685, 419.644 323.630 C 421.091 322.201, 432.111 301.956, 432.415 300.170 C 432.539 299.439, 433.237 298.472, 433.966 298.021 C 435.911 296.819, 434.684 292.236, 430.603 285.460 C 428.676 282.263, 427.330 279.275, 427.611 278.820 C 427.892 278.365, 426.061 274.921, 423.542 271.167 L 418.962 264.340 413.731 265.075 C 410.854 265.479, 404.675 266.918, 400 268.273 C 389.668 271.266, 382.824 272.535, 385 271.052 C 385.825 270.490, 387.302 270.024, 388.281 270.015 C 389.962 270.001, 391.774 267.440, 390.795 266.462 C 390.546 266.213, 386.778 266.868, 382.421 267.918 C 378.065 268.967, 370.514 270.621, 365.643 271.592 C 357.093 273.296, 352.972 275.372, 354.702 277.102 C 355.158 277.558, 358.413 277.260, 361.933 276.438 C 370.482 274.444, 371.944 275.132, 363.907 277.366 C 360.401 278.341, 357.215 279.652, 356.827 280.281 C 356.361 281.035, 355.419 280.531, 354.057 278.800 C 352.312 276.581, 351.570 276.309, 349.247 277.039 C 347.736 277.513, 343.125 278.438, 339 279.094 C 334.875 279.749, 328.844 281.150, 325.598 282.205 C 320.481 283.869, 319.505 283.934, 318.266 282.695 C 317.027 281.455, 317.862 279.980, 324.540 271.611 C 330.796 263.770, 332.506 262.175, 333.646 263.121 C 335.604 264.746, 336.385 263.589, 334.917 261.238 C 333.906 259.619, 334.023 258.831, 335.597 256.672 C 336.644 255.237, 337.725 254.057, 338 254.049 C 338.275 254.042, 339.935 256.232, 341.690 258.916 L 344.880 263.795 349.690 262.277 C 352.335 261.442, 356.198 259.893, 358.274 258.835 C 360.350 257.778, 362.536 257.213, 363.132 257.581 C 364.443 258.392, 363.557 255.189, 360.962 249.739 C 359.233 246.107, 359.234 245.945, 361.018 244.990 C 362.034 244.447, 363.160 243.072, 363.520 241.936 C 364.128 240.022, 364.424 240.151, 367.546 243.685 C 369.400 245.783, 370.935 248.218, 370.958 249.095 C 370.981 249.972, 371.843 251.453, 372.874 252.386 C 374.641 253.985, 374.953 253.960, 378.374 251.942 C 382.541 249.483, 382.889 248.466, 379.836 247.667 C 377.968 247.179, 377.855 246.879, 379.013 245.485 C 380.664 243.495, 385.359 241, 387.450 241 C 389.735 241, 389.334 243.653, 386.777 245.443 L 384.555 247 386.757 247 C 387.969 247, 390.802 246.263, 393.054 245.362 C 396.715 243.897, 397.079 243.451, 396.499 241.139 C 395.885 238.692, 395.947 238.642, 397.675 240.197 C 399.280 241.643, 399.892 241.675, 402.758 240.465 C 407.032 238.661, 413 234.074, 413 232.593 C 413 231.949, 412.115 229.686, 411.032 227.564 C 409.950 225.441, 409.261 223.386, 409.502 222.997 C 409.742 222.608, 412.597 221.321, 415.845 220.137 C 423.154 217.472, 426.828 214.655, 428.635 210.332 C 429.400 208.499, 430.374 207, 430.798 207 C 431.222 207, 432.345 205.687, 433.293 204.082 L 435.017 201.163 420.397 205.027 C 412.357 207.152, 404.993 209.601, 404.034 210.470 C 403.074 211.338, 401.594 211.782, 400.745 211.456 C 399.483 210.971, 399.289 211.513, 399.682 214.432 C 400.121 217.690, 399.949 218, 397.691 218 C 393.721 218, 387.415 221.261, 387.780 223.124 C 387.955 224.017, 387.452 224.996, 386.662 225.299 C 385.613 225.702, 385.372 225.295, 385.765 223.789 C 386.272 221.852, 386.017 221.770, 381.546 222.441 C 377.481 223.050, 366.341 225.693, 359.500 227.670 C 357.532 228.239, 357.533 228.211, 359.565 225.874 C 360.701 224.568, 362.349 222.339, 363.227 220.920 C 364.513 218.841, 366.707 217.832, 374.527 215.721 C 379.864 214.281, 384.455 212.878, 384.730 212.604 C 385.645 211.689, 380.929 205.112, 378.895 204.467 C 377.792 204.117, 377.042 203.531, 377.227 203.165 C 380.256 197.190, 380.288 197.052, 379.025 195.530 C 376.956 193.037, 375.424 193.717, 370.843 199.163 M 50.750 202.615 C 43.602 207.436, 42.299 210.156, 45.571 213.429 C 48.631 216.489, 53.966 214.736, 61.037 208.347 L 64.955 204.808 62.359 201.404 C 60.931 199.532, 59.254 198.014, 58.631 198.031 C 58.009 198.048, 54.462 200.111, 50.750 202.615 M 446 199.441 C 446 200.234, 446.520 201.203, 447.155 201.595 C 447.906 202.060, 448.036 201.867, 447.526 201.043 C 447.070 200.305, 447.319 199.412, 448.122 198.904 C 449.212 198.213, 449.134 198.027, 447.750 198.015 C 446.788 198.007, 446 198.648, 446 199.441 M 63.062 208.434 L 60.771 210.873 63.136 210.386 L 65.500 209.900 63 211.673 C 60.665 213.328, 57.095 216.945, 50.102 224.737 C 47.991 227.090, 47.224 228.931, 47.296 231.476 C 47.394 234.919, 47.430 234.947, 49.448 233.189 C 50.577 232.205, 55.775 227.621, 61 223.001 C 66.225 218.381, 70.853 214.315, 71.286 213.965 C 71.718 213.615, 70.560 211.679, 68.712 209.662 L 65.353 205.995 63.062 208.434 M 103.953 214.824 C 99.304 219.127, 93.504 224.468, 91.064 226.692 L 86.629 230.736 96.984 244.118 C 102.680 251.478, 107.493 257.692, 107.680 257.927 C 107.868 258.162, 108.579 257.695, 109.260 256.890 C 109.942 256.085, 114.775 251.404, 120 246.489 L 129.500 237.551 119.080 248.213 L 108.661 258.874 117.467 270.687 C 122.310 277.184, 126.562 282.829, 126.916 283.230 C 127.270 283.632, 129.179 283.513, 131.158 282.967 C 133.677 282.271, 137.417 279.264, 143.628 272.942 C 148.508 267.975, 152.625 263.361, 152.778 262.688 C 152.932 262.016, 147.523 254.049, 140.759 244.983 C 133.995 235.917, 127.733 227.460, 126.844 226.189 C 125.271 223.942, 125.123 223.922, 121.426 225.466 C 118.019 226.890, 117.468 226.896, 116.100 225.528 C 114.731 224.160, 114.932 223.694, 118.037 221.030 C 120.211 219.164, 121.109 217.768, 120.449 217.279 C 119.870 216.851, 117.881 214.363, 116.029 211.750 C 114.177 209.137, 112.603 207, 112.533 207 C 112.463 207, 108.602 210.521, 103.953 214.824 M 0.370 219 C 0.370 224.775, 0.535 227.137, 0.737 224.250 C 0.939 221.363, 0.939 216.637, 0.737 213.750 C 0.535 210.863, 0.370 213.225, 0.370 219 M 139.500 219.485 C 129.736 222.988, 128.084 224.956, 131.966 228.469 C 133.728 230.064, 134.357 230.147, 136.400 229.053 C 139.146 227.584, 150.924 215.936, 149.469 216.128 C 148.936 216.199, 144.450 217.710, 139.500 219.485 M 259.547 222.750 C 257.391 224.813, 256.200 225.732, 256.900 224.794 C 258.512 222.631, 257.410 220.415, 255.507 221.995 C 254.770 222.606, 253.015 222.791, 251.515 222.414 C 249.570 221.926, 248.024 222.346, 245.851 223.952 C 244.207 225.167, 242.261 225.930, 241.525 225.648 C 239.943 225.041, 236.533 228.507, 236.513 230.742 C 236.506 231.601, 235.645 232.431, 234.600 232.586 C 231.934 232.980, 231.016 234.911, 232.116 237.805 C 232.633 239.165, 232.931 240.363, 232.778 240.467 C 232.625 240.571, 230.817 241.909, 228.760 243.439 C 226.703 244.970, 224.355 245.967, 223.542 245.655 C 220.969 244.667, 220.835 246.814, 223.206 251.027 C 225.207 254.582, 225.852 255.036, 228.252 254.576 C 229.875 254.265, 233.509 251.477, 237.113 247.775 L 243.223 241.500 238.985 246.790 C 236.654 249.700, 234.919 252.253, 235.130 252.463 C 235.341 252.674, 236.977 252.544, 238.765 252.173 C 241.358 251.636, 244.534 248.600, 254.463 237.165 C 265.492 224.465, 266.775 222.612, 265.715 220.915 C 265.057 219.862, 264.282 219, 263.993 219 C 263.703 219, 261.703 220.688, 259.547 222.750 M 366 223.059 C 366 223.641, 366.450 223.840, 367 223.500 C 367.550 223.160, 368 222.684, 368 222.441 C 368 222.198, 367.550 222, 367 222 C 366.450 222, 366 222.477, 366 223.059 M 235 226.059 C 235 226.641, 235.450 226.840, 236 226.500 C 236.550 226.160, 237 225.684, 237 225.441 C 237 225.198, 236.550 225, 236 225 C 235.450 225, 235 225.477, 235 226.059 M 253.405 229.250 L 251.500 231.500 253.750 229.595 C 255.864 227.805, 256.455 227, 255.655 227 C 255.465 227, 254.453 228.012, 253.405 229.250 M 27.909 239.106 C 22.184 244.115, 17.552 248.780, 17.617 249.473 C 17.681 250.166, 17.162 250.681, 16.463 250.617 C 15.765 250.553, 12 253.146, 8.097 256.380 C 0.556 262.628, -0.695 265.460, 3.051 267.800 C 4.899 268.954, 5.741 268.519, 11.574 263.397 C 17.909 257.836, 19.527 255.115, 14.566 258.365 C 10.216 261.215, 10.349 260.115, 14.862 255.925 C 19.151 251.941, 19.247 251.908, 20.668 253.937 C 22.771 256.939, 24.071 256.536, 29.042 251.340 C 32.941 247.265, 33.080 246.983, 30.148 249.090 C 23.275 254.031, 22.585 254.294, 25.946 250.692 C 29.537 246.845, 29.126 245.823, 25.118 248.630 C 22.889 250.191, 22.835 250.177, 23.841 248.298 C 25.435 245.318, 26.778 244.522, 36.180 240.979 L 44.861 237.709 41.763 233.855 C 40.059 231.735, 38.587 230, 38.491 230 C 38.396 230, 33.633 234.098, 27.909 239.106 M 230.667 230.667 C 230.300 231.033, 230 231.798, 230 232.367 C 230 232.993, 230.466 232.934, 231.183 232.217 C 231.834 231.566, 232.134 230.801, 231.850 230.517 C 231.566 230.232, 231.033 230.300, 230.667 230.667 M 323.719 230.615 C 323.381 230.953, 323.823 232.326, 324.701 233.666 C 326.669 236.670, 328.759 235.287, 327.057 232.107 C 325.916 229.975, 324.840 229.494, 323.719 230.615 M 376.795 231.747 C 376.201 232.463, 375.931 233.264, 376.195 233.529 C 376.928 234.262, 383 231.928, 383 230.913 C 383 229.582, 378.038 230.249, 376.795 231.747 M 1 242.907 C 1 252.561, 1.219 254.125, 2.500 253.607 C 6.928 251.815, 7.203 251.989, 4.134 254.645 C 2.199 256.319, 0.924 258.263, 1.134 259.218 C 1.412 260.480, 3.153 259.385, 8.367 254.671 L 15.234 248.461 9.022 240.981 C 5.605 236.866, 2.403 233.072, 1.905 232.550 C 1.362 231.980, 1 236.127, 1 242.907 M 83.302 234.250 C 82.176 235.488, 81.447 237.024, 81.682 237.665 C 81.918 238.306, 81.173 239.128, 80.027 239.491 C 78.009 240.132, 78 240.225, 79.722 242.484 C 91.613 258.078, 96.293 263.998, 97.565 265.054 C 98.830 266.104, 99.655 265.757, 102.541 262.960 C 104.443 261.116, 106 259.229, 106 258.765 C 106 257.753, 86.747 232.140, 85.924 232.057 C 85.608 232.026, 84.427 233.012, 83.302 234.250 M 71.522 245.425 C 69.041 247.941, 66.611 250, 66.121 250 C 65.631 250, 64.480 251.144, 63.564 252.542 C 61.951 255.004, 61.997 255.209, 65.033 259.042 C 66.757 261.219, 68.797 263, 69.565 263 C 70.333 263, 71.269 264.238, 71.644 265.750 C 72.400 268.795, 79.415 277.616, 82.314 279.168 C 83.691 279.905, 84.652 279.720, 86.060 278.446 C 87.101 277.504, 87.712 276.343, 87.417 275.866 C 87.123 275.390, 87.492 275, 88.238 275 C 88.984 275, 91.272 273.282, 93.322 271.183 L 97.049 267.365 92.275 260.762 C 89.649 257.130, 86.487 253.597, 85.250 252.911 C 84.013 252.224, 83 251.106, 83 250.426 C 83 249.746, 81.432 247.313, 79.516 245.019 L 76.032 240.850 71.522 245.425 M 221.458 242.068 C 221.095 242.656, 220.191 242.904, 219.450 242.619 C 218.570 242.281, 218.301 242.620, 218.674 243.594 C 219.169 244.884, 219.502 244.856, 221.124 243.388 C 222.985 241.704, 223.408 241, 222.559 241 C 222.316 241, 221.821 241.481, 221.458 242.068 M 341.200 249.200 C 339.312 251.088, 339.797 252.179, 342 251 C 343.100 250.411, 344 249.495, 344 248.965 C 344 247.640, 342.646 247.754, 341.200 249.200 M 50 249.709 C 42.283 252.543, 41.721 252.956, 43.128 254.750 C 44.343 256.299, 44.317 256.357, 42.905 255.256 C 41.560 254.207, 40.431 254.758, 35.720 258.756 C 32.646 261.365, 30.110 263.950, 30.085 264.500 C 30.060 265.050, 35.240 271.800, 41.595 279.500 C 52.132 292.267, 58.900 301.020, 56.286 298.500 C 55.716 297.950, 49.563 290.637, 42.612 282.250 C 35.662 273.863, 29.311 267, 28.498 267 C 27.279 267, 21.805 271.395, 14.137 278.529 C 13.004 279.583, 13.918 281.204, 19.566 288.149 C 23.301 292.742, 27.924 298.169, 29.841 300.208 L 33.325 303.917 30.912 305.887 C 27.556 308.629, 29.359 310.468, 33.864 308.898 C 35.645 308.277, 37.379 308.046, 37.718 308.384 C 38.056 308.723, 37.838 309, 37.232 309 C 36.626 309, 34.903 309.467, 33.402 310.037 C 31.487 310.765, 30.989 311.389, 31.730 312.130 C 32.472 312.872, 33.489 312.743, 35.143 311.698 C 36.439 310.880, 41.775 308.987, 47 307.492 C 52.225 305.997, 56.950 304.324, 57.500 303.774 C 58.599 302.676, 58.640 302.667, 47.154 306.006 C 38.458 308.534, 36.466 308.160, 44.762 305.557 C 47.918 304.567, 52.300 302.969, 54.500 302.005 C 56.700 301.042, 60.371 299.741, 62.657 299.114 C 65.106 298.444, 67.990 296.644, 69.674 294.738 C 71.246 292.957, 74.438 290, 76.766 288.166 C 79.095 286.332, 81 284.420, 81 283.916 C 81 282.356, 53.836 248.995, 52.634 249.079 C 52.010 249.122, 50.825 249.406, 50 249.709 M 216.736 253.754 C 217.164 254.871, 216.910 255.180, 215.888 254.787 C 214.927 254.418, 214.429 254.871, 214.429 256.114 C 214.429 258.320, 214.970 258.389, 220.134 256.842 C 225.619 255.198, 225.158 253.305, 219.086 252.536 C 216.707 252.235, 216.245 252.475, 216.736 253.754 M 28.250 257.247 C 24.724 258.378, 24.078 259.709, 26.587 260.672 C 27.561 261.045, 29.194 260.261, 30.814 258.640 C 33.647 255.808, 33.308 255.624, 28.250 257.247 M 210.065 258.421 C 209.098 259.587, 209.254 259.746, 210.932 259.308 C 212.057 259.013, 212.731 258.374, 212.430 257.886 C 211.697 256.701, 211.446 256.757, 210.065 258.421 M 74.636 258.780 C 74.298 259.326, 74.692 260.329, 75.511 261.009 C 77.137 262.359, 77.476 261.300, 76.110 259.143 C 75.587 258.319, 75.009 258.176, 74.636 258.780 M 293.250 263.407 C 290.913 266.401, 289 269.104, 289 269.414 C 289 269.724, 291.475 268.764, 294.500 267.281 C 300.128 264.520, 301.067 262.841, 298.750 259.674 C 297.630 258.143, 297.057 258.533, 293.250 263.407 M 12.313 264.280 C 8.910 267.151, 6.097 269.984, 6.063 270.576 C 6.028 271.167, 7.109 272.693, 8.464 273.967 L 10.929 276.282 17.495 269.891 C 23.857 263.698, 24.012 263.430, 22.474 261.250 C 21.601 260.012, 20.350 259.013, 19.693 259.030 C 19.037 259.046, 15.716 261.409, 12.313 264.280 M 205 260 C 204.099 260.582, 203.975 260.975, 204.691 260.985 C 205.346 260.993, 206.160 260.550, 206.500 260 C 207.267 258.758, 206.921 258.758, 205 260 M 103.594 263.904 C 99.255 268.347, 99.029 267.461, 107.209 278.071 L 113.046 285.642 119.011 285.500 C 125.465 285.346, 126.832 284.753, 125.296 282.774 C 124.752 282.073, 121.013 277.225, 116.986 272 C 112.960 266.775, 109.160 261.935, 108.541 261.244 C 107.662 260.262, 106.585 260.841, 103.594 263.904 M 145.500 272.783 C 141.100 277.472, 138.031 281.007, 138.680 280.639 C 139.392 280.234, 141.676 282.330, 144.444 285.927 L 149.028 291.884 153.681 286.910 C 157.153 283.198, 158.046 281.646, 157.199 280.799 C 156.352 279.952, 154.977 280.005, 151.782 281.005 C 145.198 283.066, 144.001 283.160, 144.612 281.570 C 144.908 280.796, 147.366 279.632, 150.073 278.982 C 152.915 278.301, 154.731 277.374, 154.370 276.789 C 153.536 275.440, 155.901 274.031, 159 274.031 C 160.979 274.031, 161.187 274.233, 160 275 C 159.175 275.533, 158.950 275.969, 159.500 275.969 C 160.050 275.969, 161.175 275.533, 162 275 C 163 274.354, 163.083 274.026, 162.250 274.015 C 161.563 274.007, 161 273.502, 161 272.894 C 161 271.533, 155.088 263.950, 154.166 264.129 C 153.800 264.200, 149.900 268.095, 145.500 272.783 M 91.588 275.842 C 87.792 279.604, 84.702 283.021, 84.720 283.434 C 84.739 283.847, 86.025 285.872, 87.576 287.935 L 90.398 291.686 99.949 289.306 C 105.202 287.996, 110.067 286.730, 110.759 286.490 C 111.556 286.215, 109.603 282.926, 105.436 277.528 C 101.815 272.838, 98.771 269, 98.672 269 C 98.572 269, 95.384 272.079, 91.588 275.842 M 1 271.059 C 1 271.641, 1.450 271.840, 2 271.500 C 2.550 271.160, 3 270.684, 3 270.441 C 3 270.198, 2.550 270, 2 270 C 1.450 270, 1 270.477, 1 271.059 M 1.437 274.303 C 1.131 275.101, 1.020 277.861, 1.190 280.435 L 1.500 285.116 5.500 280.823 C 7.700 278.462, 9.090 276.859, 8.589 277.259 C 8.088 277.660, 7.177 276.982, 6.564 275.753 C 5.243 273.103, 2.225 272.249, 1.437 274.303 M 375.813 273.683 C 376.534 273.972, 377.397 273.936, 377.729 273.604 C 378.061 273.272, 377.471 273.036, 376.417 273.079 C 375.252 273.127, 375.015 273.364, 375.813 273.683 M 371.813 274.683 C 372.534 274.972, 373.397 274.936, 373.729 274.604 C 374.061 274.272, 373.471 274.036, 372.417 274.079 C 371.252 274.127, 371.015 274.364, 371.813 274.683 M 210.980 278.521 C 208.951 280.681, 208.817 281.303, 209.879 283.635 L 211.089 286.289 214.001 283.499 C 216.283 281.313, 216.705 280.318, 215.952 278.910 C 214.392 275.995, 213.425 275.919, 210.980 278.521 M 6.230 285.751 C 1.546 289.972, 0.963 290.940, 0.980 294.452 C 0.995 297.501, 1.743 299.215, 4.250 301.950 L 7.500 305.496 4.250 302.561 L 1 299.626 1 310.313 C 1 318.188, 1.329 321.004, 2.250 321.015 C 3.222 321.027, 3.214 321.212, 2.214 321.846 C 1.267 322.447, 1.004 325.475, 1.214 333.347 L 1.500 344.031 16.945 328.559 C 29.583 315.898, 32.062 312.961, 30.586 312.395 C 29.595 312.014, 26.245 312.477, 23.142 313.422 C 14.246 316.134, 14 316.183, 14 315.264 C 14 314.785, 17.075 313.403, 20.833 312.193 C 24.592 310.982, 27.742 309.431, 27.835 308.746 C 27.927 308.061, 28.251 305.925, 28.554 304 C 29.052 300.835, 28.597 299.951, 23.803 294.771 C 20.886 291.621, 16.925 287.234, 15 285.022 L 11.500 281.002 6.230 285.751 M 132.216 289.281 C 129.347 292.186, 127 294.885, 127 295.279 C 127 295.673, 128.629 298.263, 130.621 301.035 C 134.179 305.988, 134.210 306.114, 132.418 308.288 C 131.415 309.504, 134.610 306.572, 139.518 301.772 C 148.101 293.377, 148.367 292.985, 146.471 291.510 C 145.387 290.666, 143.262 289.700, 141.750 289.363 C 138.928 288.734, 138.231 287.593, 140 286.500 C 141.617 285.500, 141.147 284, 139.216 284 C 138.235 284, 135.085 286.377, 132.216 289.281 M 75.500 291 C 72.234 294.300, 69.924 297, 70.365 297 C 71.542 297, 87.439 292.892, 87.851 292.481 C 88.325 292.009, 82.937 285, 82.100 285 C 81.736 285, 78.766 287.700, 75.500 291 M 197.822 294.056 C 193.245 299.037, 189.368 303.691, 189.207 304.398 C 189.046 305.105, 189.670 306.311, 190.594 307.078 C 192.087 308.317, 192.768 307.917, 196.718 303.486 C 209.575 289.061, 210.297 288.063, 209 286.499 C 208.315 285.675, 207.393 285, 206.950 285 C 206.506 285, 202.399 289.075, 197.822 294.056 M 125.250 288.706 C 122.685 289.200, 122.276 290.785, 124.494 291.636 C 125.316 291.952, 125.697 292.682, 125.340 293.259 C 124.958 293.877, 125.172 294.012, 125.862 293.585 C 126.506 293.187, 126.762 292.423, 126.430 291.887 C 126.099 291.351, 126.372 290.257, 127.036 289.456 C 127.701 288.655, 128.077 288.061, 127.872 288.136 C 127.668 288.211, 126.487 288.467, 125.250 288.706 M 301.813 289.683 C 302.534 289.972, 303.397 289.936, 303.729 289.604 C 304.061 289.272, 303.471 289.036, 302.417 289.079 C 301.252 289.127, 301.015 289.364, 301.813 289.683 M 324.511 297.377 C 325.457 298.820, 326.419 300, 326.650 300 C 327.374 300, 325.045 296.146, 323.891 295.433 C 323.287 295.059, 323.566 295.934, 324.511 297.377 M 258.554 300.750 C 264.179 309.420, 265.347 311, 266.133 311 C 267.629 311, 267.121 309.938, 262.750 303.914 C 258.500 298.058, 255.187 295.560, 258.554 300.750 M 250 299.804 C 250 300.247, 251.350 302.737, 253 305.339 C 256.866 311.435, 256.829 312.319, 252.913 307.388 C 251.216 305.249, 249.652 303.323, 249.437 303.107 C 249.223 302.892, 248.398 303.255, 247.603 303.915 C 246.399 304.914, 246.254 304.744, 246.737 302.900 C 247.292 300.776, 247.116 300.712, 242.448 301.352 C 239.771 301.719, 237.241 302.359, 236.827 302.773 C 236.412 303.188, 237.671 305.546, 239.625 308.014 C 241.579 310.481, 243.513 313.099, 243.924 313.831 C 244.531 314.914, 245.774 314.944, 250.585 313.992 C 253.838 313.348, 257.569 312.670, 258.876 312.485 C 263.108 311.886, 263.096 310.552, 258.803 304.705 C 255.807 300.623, 253.959 299, 252.308 299 C 251.039 299, 250 299.362, 250 299.804 M 228.750 303.716 C 227.112 303.964, 226 304.760, 226 305.683 C 226 306.841, 225.305 307.094, 223.250 306.681 C 221.738 306.378, 215.100 307.254, 208.500 308.629 C 189.778 312.529, 189.863 312.519, 190.577 310.660 C 190.924 309.755, 190.439 308.296, 189.468 307.325 C 187.833 305.690, 187.618 305.742, 185.407 308.313 C 184.123 309.805, 183.298 311.613, 183.573 312.331 C 183.936 313.275, 181.847 314.011, 176 315 C 170.066 316.004, 168.062 316.718, 168.437 317.695 C 168.808 318.662, 168.296 318.861, 166.558 318.425 C 163.578 317.677, 148.854 320.784, 147.500 322.447 C 146.950 323.123, 145.892 323.876, 145.150 324.121 C 144.209 324.432, 145.116 326.226, 148.135 330.033 C 151.767 334.612, 162.945 349.291, 165.138 352.362 C 166.124 353.743, 178 353.497, 178 352.096 C 178 351.599, 174.624 346.874, 170.499 341.596 C 166.373 336.318, 163.370 332, 163.825 332 C 164.595 332, 179.513 350.646, 182.253 355.033 C 183.864 357.614, 185.109 357.474, 187.297 354.469 L 189.093 352 185.297 351.909 C 181.546 351.819, 181.566 351.800, 186.869 350.361 C 189.822 349.560, 192.472 349.139, 192.759 349.426 C 193.046 349.713, 191.642 351.760, 189.640 353.976 C 185.888 358.129, 185.068 360.719, 187.250 361.523 C 187.938 361.776, 194.981 360.897, 202.901 359.568 L 217.303 357.152 219.076 359.326 C 221.102 361.811, 219.600 363.029, 217.321 360.750 C 216.011 359.439, 214.946 359.542, 208.169 361.633 C 203.951 362.935, 199.023 364, 197.219 364 C 193.179 364, 192.166 366.078, 194.483 369.614 C 195.918 371.805, 196.681 372.114, 199.343 371.580 C 208.278 369.788, 210 369.728, 210 371.206 C 210 372.009, 211.463 374.321, 213.250 376.344 L 216.500 380.021 220.500 374.035 C 222.700 370.742, 225.063 368.037, 225.750 368.024 C 227.964 367.981, 227.100 370.013, 222.500 375.659 C 220.025 378.697, 218 381.605, 218 382.121 C 218 383.792, 226.259 393.504, 227.570 393.374 C 228.288 393.303, 228.601 393.877, 228.289 394.690 C 227.973 395.513, 229.145 397.587, 231.019 399.520 C 233.604 402.187, 234.682 402.705, 236.082 401.956 C 237.346 401.280, 238.295 401.438, 239.359 402.502 C 241.117 404.260, 243.799 404.407, 247.617 402.955 C 249.973 402.060, 250.708 402.254, 252.770 404.315 L 255.174 406.719 249.837 407.395 C 246.902 407.766, 243.036 408.329, 241.247 408.647 L 237.993 409.224 243.147 415.862 C 245.982 419.513, 248.738 423.063, 249.273 423.750 C 249.958 424.631, 249.785 425, 248.686 425 C 247.829 425, 246.116 423.200, 244.880 421 C 243.643 418.800, 242.265 417, 241.816 417 C 241.367 417, 240.998 416.438, 240.995 415.750 C 240.992 415.063, 239.980 413.295, 238.745 411.823 C 236.687 409.369, 236.057 409.192, 231.194 409.705 C 227.346 410.111, 226.028 410.630, 226.397 411.592 C 227.443 414.319, 234.549 422.888, 235.809 422.943 C 236.529 422.974, 236.889 423.370, 236.609 423.823 C 236.330 424.276, 238.561 427.876, 241.569 431.823 C 244.576 435.770, 246.594 439, 246.053 439 C 245.513 439, 244.570 438.065, 243.958 436.922 C 243.347 435.780, 242.257 435.071, 241.536 435.348 C 240.704 435.667, 240.369 435.240, 240.618 434.175 C 240.836 433.241, 239.348 430.647, 237.254 428.313 C 235.189 426.011, 231.304 421.173, 228.621 417.563 C 223.665 410.896, 222.411 410.248, 217.187 411.647 C 215.915 411.987, 213.347 414.533, 211.481 417.305 L 208.088 422.343 210.727 424.611 L 213.367 426.879 208.721 428.049 C 204.645 429.075, 204.255 429.398, 205.538 430.681 C 206.342 431.485, 207 432.786, 207 433.571 C 207 434.357, 207.456 435, 208.014 435 C 209.234 435, 214.912 428.915, 215.012 427.500 C 215.097 426.312, 221.870 418.480, 222.290 419.083 C 222.450 419.313, 223.823 421.188, 225.341 423.250 L 228.102 427 224.801 427.015 C 222.985 427.024, 221.050 427.361, 220.500 427.765 C 219.070 428.816, 219.109 433, 220.548 433 C 221.212 433, 222.315 433.675, 223 434.500 C 223.685 435.325, 224.752 435.964, 225.372 435.921 C 226.081 435.871, 226.035 435.655, 225.250 435.338 C 224.563 435.060, 224 434.373, 224 433.810 C 224 433.247, 224.663 433.040, 225.473 433.351 C 226.316 433.675, 227.574 433.018, 228.417 431.815 C 229.880 429.726, 229.904 429.733, 232.626 432.967 C 234.131 434.756, 235.956 436.814, 236.682 437.539 C 238.572 439.429, 238.384 441.314, 236.415 440.212 C 234.638 439.218, 224.982 440.455, 224.080 441.793 C 223.761 442.265, 222.150 444.754, 220.500 447.324 C 218.737 450.069, 216.751 451.997, 215.683 451.998 C 214.178 452, 214.451 451.271, 217.278 447.750 C 223.161 440.422, 223.235 440.612, 214.799 441.377 C 208.983 441.904, 207.033 441.745, 206.143 440.673 C 204.323 438.480, 195.116 440.542, 192.120 443.815 C 190.696 445.370, 190.194 446.565, 190.870 446.790 C 191.492 446.997, 192 447.834, 192 448.649 C 192 449.464, 192.469 451.008, 193.042 452.079 C 194.040 453.943, 194.252 453.892, 197.991 450.887 C 202.578 447.200, 205.517 447.514, 204.735 451.605 L 204.242 454.186 222.831 453.693 C 240.191 453.232, 241.533 453.060, 243.120 451.100 C 244.056 449.945, 245.176 449, 245.610 449 C 246.045 449, 245.860 449.540, 245.200 450.200 C 243.292 452.108, 243.788 453, 246.756 453 C 248.797 453, 249.831 453.713, 250.743 455.750 C 251.420 457.262, 253.694 460.486, 255.796 462.914 L 259.618 467.328 262.474 462.414 C 264.045 459.711, 266.023 456.426, 266.870 455.113 L 268.409 452.727 260.455 453.464 C 256.080 453.869, 252.750 453.943, 253.056 453.628 C 253.706 452.958, 270.328 450.995, 270.859 451.526 C 271.057 451.723, 268.652 455.527, 265.516 459.978 C 259.243 468.878, 259.250 468.090, 265.379 474.735 C 268.687 478.321, 268.446 479.301, 264.292 479.146 C 259.542 478.970, 251 480.103, 251 480.910 C 251 482.076, 259.837 482.158, 261.978 481.012 C 263.403 480.249, 264.286 480.429, 265.609 481.752 C 267.080 483.223, 267.121 483.545, 265.866 483.787 C 264.371 484.075, 256 495.956, 256 497.790 C 256 498.328, 257.688 500.324, 259.750 502.227 C 261.813 504.130, 264.192 506.995, 265.038 508.594 L 266.577 511.500 277.454 511.500 L 288.331 511.500 291.222 506.795 L 294.114 502.090 288.892 495.295 C 286.020 491.558, 281.455 485.688, 278.749 482.250 C 276.042 478.813, 274.220 476, 274.700 476 C 275.179 476, 279.830 481.605, 285.036 488.456 C 290.241 495.307, 294.725 500.919, 295 500.928 C 295.275 500.937, 298.388 496.211, 301.918 490.427 C 305.447 484.643, 308.779 479.636, 309.322 479.301 C 310.477 478.587, 310.658 478.269, 302.320 491.622 C 298.844 497.189, 296 502.063, 296 502.453 C 296 502.844, 297.629 505.152, 299.620 507.582 L 303.241 512 321.120 512 C 330.954 512, 339 511.782, 339 511.516 C 339 511.249, 333.369 503.430, 326.488 494.140 L 313.975 477.248 309.639 477.737 C 305.555 478.198, 305.178 478.024, 303.151 474.745 C 300.677 470.741, 300.382 469.242, 302.398 470.916 C 303.168 471.554, 305.390 471.969, 307.337 471.838 L 310.877 471.600 309.188 468.728 C 308.260 467.148, 305.233 462.851, 302.462 459.178 L 297.424 452.500 291.712 452.759 C 288.365 452.911, 286 452.600, 286 452.009 C 286 451.454, 288.266 451, 291.035 451 C 295.760 451, 296.004 450.877, 295 449 C 294.411 447.900, 293.320 447, 292.576 447 C 291.831 447, 291.285 446.261, 291.361 445.358 C 291.630 442.175, 289 442.886, 286.817 446.585 C 285.603 448.643, 284.439 449.817, 284.231 449.193 C 284.023 448.570, 285.072 446.461, 286.562 444.508 C 289.180 441.076, 289.210 440.890, 287.480 438.978 C 285.014 436.253, 283.732 436.491, 281.618 440.069 C 280.621 441.757, 279.575 442.908, 279.293 442.627 C 279.012 442.345, 279.764 440.736, 280.964 439.050 L 283.147 435.985 254.187 397.242 C 203.085 328.879, 199.917 324.528, 200.981 324.173 C 201.557 323.981, 200.589 321.951, 198.829 319.662 C 193.817 313.143, 193.721 313, 194.345 313 C 194.670 313, 196.801 315.471, 199.081 318.491 C 203.445 324.271, 203.291 324.220, 210.500 322.274 C 212.365 321.771, 212.392 321.861, 210.902 323.617 C 207.559 327.556, 207.824 328.868, 213.514 336.563 C 218.042 342.686, 219.499 343.998, 221.757 343.986 C 224.889 343.970, 245.607 339.726, 248.250 338.559 C 251.334 337.197, 250.214 339.961, 244.983 346.616 C 239.631 353.427, 239.726 353.619, 247.701 352.065 C 250.340 351.550, 255.456 350.584, 259.069 349.917 L 265.638 348.705 254.069 332.382 C 247.706 323.405, 240.475 313.128, 238 309.545 C 235.525 305.962, 233.050 303.091, 232.500 303.165 C 231.950 303.239, 230.262 303.487, 228.750 303.716 M 59.036 306.519 C 59.098 308.219, 63.876 313.457, 64.654 312.679 C 65.063 312.270, 63.958 310.496, 62.199 308.737 C 60.439 306.978, 59.016 305.980, 59.036 306.519 M 47.232 309.967 C 43.784 311.598, 40.705 313.606, 40.389 314.429 C 39.880 315.754, 39.551 315.752, 37.500 314.408 C 36.227 313.574, 34.940 313.288, 34.641 313.772 C 34.149 314.568, 35.954 317.026, 44.419 327.087 L 47.137 330.317 55.069 322.432 C 59.431 318.095, 63 314.210, 63 313.799 C 63 313.388, 61.588 312.321, 59.861 311.428 C 55.922 309.391, 53.779 310.255, 46.961 316.633 C 44.233 319.185, 42 320.824, 42 320.274 C 42 319.724, 44.138 317.266, 46.750 314.813 C 51.533 310.322, 54.562 306.999, 53.872 307.001 C 53.668 307.001, 50.679 308.336, 47.232 309.967 M 124.405 317.250 L 122.500 319.500 124.750 317.595 C 126.864 315.805, 127.455 315, 126.655 315 C 126.465 315, 125.453 316.012, 124.405 317.250 M 14.883 317.680 C 13.810 319.001, 13.797 319.205, 14.824 318.587 C 15.658 318.085, 17.096 318.662, 18.710 320.145 C 21.052 322.298, 21.179 322.321, 20.190 320.418 C 18.259 316.698, 16.440 315.760, 14.883 317.680 M 67 316.519 C 67 316.897, 70.403 321.322, 74.563 326.353 C 78.722 331.384, 82.755 336.272, 83.524 337.216 C 84.775 338.751, 84.294 339.532, 78.961 344.618 C 75.683 347.746, 73 350.743, 73 351.280 C 73 353.229, 87.135 369, 88.882 369 C 90.992 369, 102.882 365.339, 104.921 364.061 C 106.915 362.811, 107.135 363.116, 85.794 337.500 C 84.878 336.400, 80.693 331.225, 76.495 326 C 69.432 317.208, 67 314.780, 67 316.519 M 233.289 318.151 C 234.216 320.826, 241.100 330, 242.179 330 C 243.140 330, 237.169 321.029, 234.191 318 C 232.881 316.668, 232.780 316.685, 233.289 318.151 M 227 319.658 C 227 320.464, 235.068 331, 235.685 331 C 235.929 331, 234.234 328.300, 231.919 325 C 227.842 319.188, 227 318.273, 227 319.658 M 58 323.852 C 54.888 326.029, 52.558 328.403, 52.633 329.318 C 52.717 330.333, 52.089 330.854, 50.946 330.718 C 49.945 330.598, 48.985 330.766, 48.813 331.092 C 48.482 331.717, 64.880 351.826, 67.480 353.983 C 68.505 354.834, 69 354.883, 69 354.134 C 69 353.522, 72.150 350.025, 76 346.361 C 83.130 339.575, 84.166 338, 81.500 338 C 80.675 338, 80 337.362, 80 336.582 C 80 334.699, 73.038 327, 71.336 327 C 70.601 327, 70 326.373, 70 325.607 C 70 324.841, 69.333 323.958, 68.517 323.645 C 67.673 323.321, 67.288 322.413, 67.624 321.538 C 68.730 318.655, 63.697 319.865, 58 323.852 M 31.690 322.679 C 26.033 324.409, 24.907 326.352, 27.854 329.298 L 29.986 331.430 34.493 327.007 C 41.012 320.609, 40.590 319.957, 31.690 322.679 M 431.978 324.505 C 428.042 325.464, 427.823 325.680, 429.298 327.155 C 432.524 330.381, 427.718 331.139, 423.764 328.029 C 420.796 325.694, 420.488 325.936, 414.614 335.202 C 410.571 341.582, 410.287 342.488, 412.612 341.595 C 413.499 341.255, 419.462 340.065, 425.862 338.950 C 432.263 337.835, 439.975 336.409, 443 335.780 C 447.980 334.744, 448.217 334.582, 445.509 334.060 L 442.518 333.483 446.359 332.305 C 449.964 331.198, 450.169 331.247, 449.686 333.092 C 449.225 334.856, 449.549 334.996, 452.836 334.451 C 459.186 333.399, 459.168 333.420, 457.281 329.463 C 456.066 326.916, 454.727 325.695, 452.701 325.290 C 450.656 324.881, 450.218 324.477, 451.169 323.874 C 452.200 323.221, 452.124 323.027, 450.832 323.015 C 449.914 323.007, 448.372 323.304, 447.405 323.675 C 445.773 324.301, 445.785 324.404, 447.573 325.105 C 449.327 325.791, 449.295 325.866, 447.219 325.930 C 445.964 325.968, 444.718 325.429, 444.450 324.731 C 443.857 323.185, 437.847 323.076, 431.978 324.505 M 35.250 327.820 C 32.913 329.874, 31 331.968, 31 332.473 C 31 332.977, 32.237 334.722, 33.750 336.350 C 35.263 337.978, 35.825 338.930, 35 338.466 C 34.175 338.002, 32.912 336.807, 32.193 335.811 C 30.478 333.434, 29.169 333.526, 26.064 336.246 C 23.947 338.101, 24.006 337.933, 26.404 335.281 L 29.308 332.070 26.904 330.068 C 25.582 328.967, 24.140 328.052, 23.700 328.033 C 22.031 327.964, 16.363 331.404, 13 334.528 C 11.075 336.316, 7.588 339.456, 5.250 341.506 L 1 345.233 1 428.616 L 1 512 61.304 512 L 121.608 512 124.650 508.750 C 130.055 502.977, 133.203 498.142, 132.437 496.793 C 132.033 496.082, 130.791 494.488, 129.677 493.250 C 128.563 492.012, 127.961 491, 128.340 491 C 128.718 491, 130.259 492.336, 131.764 493.968 L 134.500 496.936 137.908 492.301 C 140.522 488.744, 140.872 487.834, 139.408 488.392 C 137.839 488.989, 137.731 488.886, 138.800 487.809 C 139.515 487.089, 140.610 486.500, 141.233 486.500 C 141.857 486.500, 145.610 482.225, 149.573 477 C 157.357 466.738, 158.028 464.378, 154.450 459.839 C 152.500 457.365, 152.049 457.264, 145.200 457.754 C 141.240 458.037, 138 458.658, 138 459.134 C 138 459.610, 138.450 460, 139 460 C 140.601 460, 140.167 461.288, 137.484 464.500 L 134.978 467.500 136.732 464.293 C 139.666 458.932, 138.283 458.504, 121.781 459.673 C 107.987 460.650, 106.045 460.621, 107.210 459.457 C 107.741 458.925, 122.114 457.520, 139 456.349 C 143.675 456.025, 148.039 455.471, 148.697 455.120 C 149.483 454.700, 148.193 452.610, 144.947 449.042 C 142.226 446.051, 140 443.343, 140 443.025 C 140 442.706, 138.660 440.979, 137.023 439.186 C 135.386 437.394, 132.857 434.369, 131.404 432.464 C 129.951 430.559, 128.372 429, 127.894 429 C 127.416 429, 121.316 435.863, 114.338 444.250 L 101.651 459.500 91.076 460.744 C 85.259 461.428, 75.775 462.194, 70 462.447 C 60.814 462.849, 60.188 462.780, 65 461.897 C 73.495 460.338, 73.558 460.297, 71.393 457.729 L 69.514 455.500 72.072 457.750 C 74.978 460.307, 80.177 460.614, 93 458.986 C 99.912 458.108, 100.758 457.738, 103.793 454.267 C 105.604 452.195, 108.349 449.150, 109.892 447.500 C 114.013 443.094, 126.005 427.915, 125.967 427.154 C 125.948 426.794, 125.054 425.444, 123.979 424.154 C 122.127 421.932, 121.656 421.852, 115.070 422.654 L 108.115 423.500 113.028 429.446 C 115.730 432.717, 117.693 435.641, 117.389 435.944 C 117.085 436.248, 115.876 435.177, 114.701 433.564 C 113.526 431.951, 111.039 429.106, 109.175 427.242 L 105.786 423.853 103.393 426.101 C 102.077 427.337, 101 427.820, 101 427.174 C 101 425.606, 99.798 425.693, 97.441 427.433 C 95.885 428.581, 95.748 429.117, 96.750 430.133 C 98.566 431.974, 98.285 433.481, 96.415 431.929 C 95.052 430.798, 94.269 431.202, 90.839 434.807 C 86.941 438.904, 84.219 440.723, 87.184 437.250 C 88.006 436.288, 91.036 432.575, 93.918 429 C 96.801 425.425, 99.804 421.701, 100.592 420.724 C 101.876 419.133, 101.600 418.373, 97.936 413.413 C 95.687 410.369, 93.251 407.650, 92.522 407.370 C 91.793 407.090, 90.979 406.026, 90.712 405.006 C 90.376 403.720, 90.653 403.313, 91.613 403.682 C 92.376 403.975, 93 404.648, 93 405.178 C 93 405.708, 94.870 408.359, 97.157 411.071 C 101.413 416.119, 102.724 416.605, 108.794 415.391 C 112.216 414.707, 112.525 415.906, 106.206 405.337 C 104.185 401.957, 104.642 402.244, 110.052 407.750 C 116.610 414.425, 120.012 416.448, 114.429 410.353 C 112.591 408.347, 110.414 405.285, 109.591 403.550 C 108.139 400.490, 105.995 398.163, 103.092 396.496 C 102.027 395.884, 101.814 396.180, 102.216 397.717 C 102.636 399.324, 102.355 399.644, 100.868 399.255 C 99.835 398.985, 98.238 399.380, 97.320 400.132 C 95.818 401.363, 95.824 401.233, 97.379 398.844 C 99.056 396.266, 99.039 396.141, 96.803 394.569 C 95.537 393.679, 92.769 392.483, 90.654 391.911 C 86.376 390.755, 86.736 390.471, 71.750 406.835 C 68.588 410.288, 66.007 412.751, 66.015 412.307 C 66.023 411.863, 69.466 407.698, 73.666 403.050 C 77.866 398.403, 80.784 394.428, 80.151 394.217 C 79.518 394.006, 78.984 393.308, 78.964 392.667 C 78.889 390.226, 74.232 385.697, 72.486 386.367 C 71.234 386.847, 70.932 386.619, 71.357 385.511 C 72.067 383.661, 70.006 383.618, 61.155 385.297 L 54.810 386.500 57.890 390.369 C 59.585 392.497, 60.675 394.717, 60.313 395.303 C 59.893 395.982, 59.446 395.824, 59.077 394.867 C 58.760 394.042, 57.514 392.132, 56.308 390.623 C 54.180 387.958, 54.041 387.927, 51.558 389.554 C 50.151 390.476, 49 391.703, 49 392.282 C 49 392.860, 48.698 393.032, 48.329 392.663 C 47.961 392.294, 48.679 390.906, 49.927 389.578 L 52.194 387.164 47.944 387.734 C 44.877 388.146, 43.892 387.984, 44.406 387.152 C 44.798 386.518, 45.766 386, 46.559 386 C 47.352 386, 48 385.380, 48 384.622 C 48 383.865, 48.675 382.685, 49.500 382 C 50.365 381.282, 51 381.185, 51 381.771 C 51 382.329, 51.786 383.088, 52.747 383.456 C 54.681 384.199, 59.467 379.564, 58.455 377.928 C 58.140 377.417, 58.326 377, 58.870 377 C 59.413 377, 60.563 376.294, 61.427 375.431 C 62.611 374.246, 62.743 373.388, 61.963 371.931 C 60.510 369.216, 62.209 369.529, 64.988 372.488 C 66.666 374.274, 67.673 374.687, 68.557 373.952 C 69.235 373.390, 70.174 373.035, 70.645 373.163 C 71.115 373.291, 72.513 373.052, 73.750 372.631 C 76.839 371.580, 76.682 367.591, 73.423 364.333 L 70.847 361.756 67.423 365.074 C 63.151 369.215, 62.954 368.261, 67.106 363.532 C 69.891 360.360, 70.497 356.997, 68.281 357.002 C 67.567 357.003, 60.125 364.446, 44.588 380.701 L 38.676 386.886 41.212 390.193 C 43.768 393.527, 51.773 402.691, 59.387 411 C 61.655 413.475, 65.980 418.425, 68.999 422 C 72.018 425.575, 74.940 428.823, 75.494 429.217 C 76.103 429.652, 75.570 430.834, 74.142 432.217 C 71.855 434.430, 71.823 434.434, 73.081 432.331 C 74.973 429.171, 72.832 427.031, 67.628 426.882 C 64.074 426.780, 63.889 426.676, 66.296 426.132 L 69.091 425.500 65.936 421.219 C 63.211 417.521, 62.557 417.112, 61.140 418.219 C 59.714 419.333, 59.662 419.293, 60.740 417.910 C 61.792 416.560, 60.749 414.893, 53.858 406.910 C 49.391 401.734, 43.641 395.405, 41.081 392.845 C 36.492 388.255, 36.365 388.203, 31.963 389.052 C 24.801 390.434, 23.063 389.936, 28.698 388.116 C 35.304 385.983, 35.738 385.494, 33.411 382.806 L 31.500 380.600 34.404 382.815 C 37.193 384.942, 37.392 384.961, 39.404 383.272 C 45.130 378.468, 45.222 378.279, 43.319 375.260 C 41.586 372.512, 41.588 372.508, 43.618 374.250 C 44.740 375.212, 46.072 375.951, 46.579 375.892 C 47.085 375.833, 49.644 373.422, 52.265 370.536 L 57.029 365.287 52.265 360.194 C 49.644 357.393, 46.150 353.286, 44.500 351.068 C 40.788 346.078, 37.700 345.026, 34.695 347.729 C 33.488 348.814, 31.684 349.991, 30.687 350.344 C 29.689 350.697, 29.153 351.439, 29.496 351.993 C 29.838 352.547, 29.386 353, 28.492 353 C 27.262 353, 27.039 353.547, 27.577 355.242 C 28.217 357.258, 28.118 357.343, 26.600 356.083 C 25.105 354.842, 24.466 355.116, 21.035 358.466 C 18.580 360.863, 17.375 362.815, 17.749 363.789 C 18.144 364.816, 17.941 365.082, 17.140 364.587 C 16.436 364.151, 14.494 365.115, 12.435 366.923 C 10.508 368.615, 8.613 370, 8.225 370 C 7.837 370, 16.235 361.275, 26.888 350.612 C 40.457 337.030, 46.024 330.816, 45.480 329.862 C 44.342 327.867, 40.744 323.993, 40.076 324.043 C 39.759 324.066, 37.587 325.766, 35.250 327.820 M 98 328 C 98 328.550, 98.477 329, 99.059 329 C 99.641 329, 99.840 328.550, 99.500 328 C 99.160 327.450, 98.684 327, 98.441 327 C 98.198 327, 98 327.450, 98 328 M 117.762 330.872 C 112.527 332.498, 110.873 335.097, 113.339 337.822 C 114.174 338.745, 114.876 339.950, 114.898 340.500 C 114.920 341.050, 115.980 341.633, 117.253 341.796 C 119.633 342.099, 128 335.428, 128 333.227 C 128 332.633, 126.762 331.529, 125.249 330.774 C 122.900 329.602, 121.805 329.617, 117.762 330.872 M 396.750 331.735 C 394.137 331.941, 392 332.566, 392 333.125 C 392 333.683, 393.372 336.133, 395.048 338.570 C 398.242 343.212, 400.250 343.841, 406 342 C 408.464 341.211, 408.457 341.197, 405.500 341.041 C 402.788 340.898, 402.678 340.768, 404.358 339.691 C 409.496 336.398, 410.795 334.933, 410.290 333.001 C 409.740 330.897, 408.660 330.796, 396.750 331.735 M 454 332 C 454 332.550, 454.450 333, 455 333 C 455.550 333, 456 332.550, 456 332 C 456 331.450, 455.550 331, 455 331 C 454.450 331, 454 331.450, 454 332 M 137.607 334.146 L 135.769 336.293 140.097 335.600 C 145.009 334.815, 145.462 334.557, 144.541 333.067 C 143.433 331.273, 139.549 331.878, 137.607 334.146 M 384.608 333.496 C 383.568 334.283, 382.385 335.057, 381.980 335.214 C 381.575 335.371, 380.931 336.946, 380.550 338.713 C 379.931 341.586, 380.129 341.994, 382.429 342.571 C 386.166 343.509, 385.629 344.307, 379.891 346.345 C 374.942 348.103, 374.802 348.259, 375.413 351.316 C 376.166 355.081, 378.307 357.480, 380.248 356.735 C 381.020 356.439, 382.952 353.714, 384.540 350.680 C 387.239 345.526, 387.728 345.113, 391.964 344.414 C 394.459 344.003, 395.737 343.488, 394.805 343.270 C 393.798 343.035, 393.338 342.282, 393.672 341.413 C 394.345 339.658, 389.491 331.987, 387.736 332.032 C 387.056 332.049, 385.649 332.708, 384.608 333.496 M 451.750 336.662 C 452.438 336.940, 453.563 336.940, 454.250 336.662 C 454.938 336.385, 454.375 336.158, 453 336.158 C 451.625 336.158, 451.063 336.385, 451.750 336.662 M 42.995 339.863 L 39.565 342.726 44.871 348.851 C 49.318 353.985, 50.475 354.816, 52.023 353.988 C 55.333 352.216, 56.425 352.918, 54.142 355.349 L 51.934 357.699 55.150 360.843 L 58.366 363.986 61.078 360.743 C 62.600 358.923, 63.361 357.232, 62.812 356.890 C 62.275 356.554, 61.984 354.754, 62.167 352.890 C 62.504 349.455, 62.027 349.139, 58 350.131 C 57.124 350.346, 56.494 349.810, 56.487 348.840 C 56.470 346.803, 53.160 343, 51.404 343 C 49.522 343, 48.599 341.001, 49.887 339.713 C 53.626 335.974, 47.494 336.107, 42.995 339.863 M 444.750 337.662 C 445.438 337.940, 446.563 337.940, 447.250 337.662 C 447.938 337.385, 447.375 337.158, 446 337.158 C 444.625 337.158, 444.063 337.385, 444.750 337.662 M 59.226 339.579 C 60.176 340.570, 61.168 341.166, 61.431 340.903 C 61.694 340.640, 60.917 339.829, 59.705 339.100 C 57.598 337.835, 57.577 337.857, 59.226 339.579 M 439.269 338.693 C 440.242 338.947, 441.592 338.930, 442.269 338.656 C 442.946 338.382, 442.150 338.175, 440.500 338.195 C 438.850 338.215, 438.296 338.439, 439.269 338.693 M 107 339.378 C 107 339.585, 107.787 340.373, 108.750 341.128 C 110.336 342.371, 110.371 342.336, 109.128 340.750 C 107.821 339.084, 107 338.555, 107 339.378 M 149.446 341.087 C 149.077 341.685, 149.179 342.579, 149.673 343.073 C 150.204 343.604, 150.571 343.160, 150.571 341.986 C 150.571 339.713, 150.386 339.566, 149.446 341.087 M 125.371 345.750 C 122.129 350.194, 121.983 351.589, 124.415 354.884 C 128.789 360.814, 131.013 361.926, 136.461 360.908 C 139.142 360.408, 141.454 359.879, 141.599 359.734 C 141.957 359.377, 128.645 343.123, 127.938 343.055 C 127.629 343.025, 126.474 344.238, 125.371 345.750 M 235.473 344.358 C 234.388 345.105, 231.766 346.034, 229.646 346.423 C 226.077 347.077, 225.839 347.328, 226.436 349.815 C 226.790 351.292, 227.137 353.095, 227.207 353.823 C 227.287 354.659, 228.100 354.940, 229.417 354.587 C 230.563 354.279, 232.492 354.021, 233.704 354.014 C 235.142 354.005, 237.141 352.385, 239.454 349.356 C 241.404 346.802, 243 344.327, 243 343.856 C 243 342.503, 237.649 342.860, 235.473 344.358 M 151.750 346.689 C 149.620 347.246, 149.623 347.141, 151.625 351.340 C 152.655 353.500, 153.845 354.633, 154.875 354.434 C 155.769 354.262, 157.751 353.856, 159.281 353.534 L 162.061 352.947 159.412 349.473 C 156.872 346.143, 155.604 345.682, 151.750 346.689 M 208.500 348 C 207.769 349.183, 208.748 349.183, 211.500 348 C 213.428 347.171, 213.421 347.138, 211.309 347.070 C 210.104 347.032, 208.840 347.450, 208.500 348 M 247 347.378 C 247 347.585, 247.787 348.373, 248.750 349.128 C 250.336 350.371, 250.371 350.336, 249.128 348.750 C 247.821 347.084, 247 346.555, 247 347.378 M 397.104 350.250 C 395.953 352.038, 394.111 354.850, 393.011 356.500 C 389.930 361.121, 390.501 362.852, 394 359.500 C 395.650 357.919, 397 355.891, 397 354.993 C 397 354.095, 398.143 352.366, 399.541 351.151 C 400.939 349.936, 401.812 348.505, 401.482 347.971 C 400.441 346.286, 399.262 346.900, 397.104 350.250 M 386.488 353.019 C 384.450 356.247, 384.162 357.434, 385.025 359.047 C 385.617 360.152, 386.553 360.776, 387.107 360.434 C 388.740 359.425, 393.903 350.652, 393.370 349.790 C 392.109 347.750, 388.848 349.280, 386.488 353.019 M 339.500 351 C 339.148 351.569, 340.009 352, 341.500 352 C 342.991 352, 343.852 351.569, 343.500 351 C 343.160 350.450, 342.260 350, 341.500 350 C 340.740 350, 339.840 350.450, 339.500 351 M 70.018 354.478 C 69.002 355.702, 69.944 357.338, 75.482 363.978 C 79.162 368.390, 82.611 372, 83.146 372 C 85.795 372, 82.381 364.119, 77.952 360.009 C 77.650 359.729, 76.382 358.038, 75.134 356.250 C 72.595 352.615, 71.794 352.338, 70.018 354.478 M 175.854 353.774 C 174.399 353.960, 172.447 354.953, 171.518 355.980 C 169.924 357.741, 169.955 358.020, 172.062 360.869 C 173.950 363.424, 174.775 363.803, 177.398 363.322 C 180.511 362.751, 183 360.601, 183 358.483 C 183 356.344, 178.571 353.425, 175.854 353.774 M 120.710 358 C 120.354 359.363, 120.680 360, 121.733 360 C 122.584 360, 123.857 360.788, 124.563 361.750 C 125.624 363.196, 125.582 363.794, 124.321 365.192 C 123.482 366.123, 122.980 367.439, 123.205 368.116 C 123.442 368.827, 124.604 367.961, 125.950 366.071 C 127.233 364.268, 127.872 362.502, 127.369 362.147 C 126.865 361.791, 125.666 360.262, 124.704 358.750 C 122.630 355.491, 121.426 355.265, 120.710 358 M 323.250 357.740 C 319.813 357.936, 317 358.441, 317 358.863 C 317 359.285, 319.813 363.654, 323.250 368.572 C 326.688 373.489, 330.772 379.384, 332.327 381.671 C 333.881 383.958, 335.988 386.584, 337.007 387.506 C 338.760 389.093, 338.831 389.071, 338.318 387.107 C 338.019 385.965, 338.032 384.359, 338.347 383.538 C 338.844 382.242, 339.314 382.273, 341.925 383.772 C 344.764 385.401, 345.027 385.402, 346.646 383.783 C 348.265 382.164, 348.225 382.017, 345.930 381.137 L 343.500 380.206 346.153 379.165 C 349.830 377.721, 350.434 376.312, 348.586 373.491 C 346.467 370.256, 346.583 367.294, 348.878 366.065 C 349.910 365.513, 350.994 363.812, 351.286 362.287 L 351.816 359.513 349.658 362.157 C 345.923 366.735, 344.025 369.321, 339.727 375.692 C 337.430 379.097, 335.372 381.705, 335.154 381.488 C 334.937 381.270, 336.752 378.034, 339.189 374.296 C 344.566 366.049, 348.277 358.944, 347.575 358.241 C 347.289 357.956, 346.605 358.910, 346.053 360.361 C 345.014 363.092, 343.580 363.747, 342.491 361.986 C 341.405 360.228, 334.179 356.992, 331.790 357.193 C 330.530 357.299, 326.688 357.545, 323.250 357.740 M 30.045 359.277 C 30.020 359.704, 31.462 361.656, 33.250 363.615 C 37.765 368.564, 38.503 370.071, 36.895 371.065 C 36.160 371.519, 35.789 372.122, 36.070 372.404 C 36.648 372.981, 41.515 368.755, 44.519 365.069 L 46.500 362.637 43.781 364.569 C 42.286 365.631, 41.049 366.837, 41.031 367.250 C 40.950 369.201, 38.220 367.567, 34.349 363.250 C 32.006 360.637, 30.069 358.849, 30.045 359.277 M 183.469 361.050 C 182.519 362.588, 183.820 363.580, 185.104 362.296 C 185.822 361.578, 185.839 361.019, 185.156 360.597 C 184.596 360.251, 183.837 360.455, 183.469 361.050 M 136.722 363.670 L 132.943 365.237 135.680 368.868 C 137.185 370.866, 138.773 372.650, 139.209 372.833 C 141.405 373.758, 139.525 375, 135.929 375 C 132.217 375, 131.997 374.860, 133.438 373.419 C 134.826 372.031, 134.793 370, 133.382 370 C 133.107 370, 133.131 370.403, 133.435 370.895 C 134.144 372.042, 131.161 373.218, 129.752 372.347 C 129.066 371.923, 128.887 372.460, 129.250 373.848 C 129.817 376.018, 129.395 376.277, 123.757 377.211 C 122.449 377.428, 125.670 382.003, 136.632 395.500 C 152.729 415.322, 152.365 415.071, 162.796 413.508 C 166.580 412.940, 167.013 412.616, 166.430 410.781 C 165.899 409.107, 166.103 408.825, 167.466 409.349 C 168.400 409.707, 169.352 410, 169.582 410 C 169.812 410, 170 410.675, 170 411.500 C 170 412.325, 170.666 413, 171.480 413 C 172.293 413, 173.836 414.718, 174.907 416.817 C 175.978 418.916, 177.612 421.263, 178.539 422.033 C 180.028 423.268, 180.562 423.054, 183.113 420.200 C 184.701 418.423, 185.998 416.638, 185.995 416.234 C 185.990 415.565, 160.511 382.950, 148.500 368.238 C 145.750 364.870, 142.825 362.111, 142 362.108 C 141.175 362.105, 138.800 362.808, 136.722 363.670 M 107 365 C 107 365.550, 107.477 366, 108.059 366 C 108.641 366, 108.840 365.550, 108.500 365 C 108.160 364.450, 107.684 364, 107.441 364 C 107.198 364, 107 364.450, 107 365 M 103.092 372.894 C 99.102 377.499, 98.151 379.231, 98.743 380.817 C 99.159 381.933, 104.675 389.016, 111 396.556 C 117.325 404.096, 123.417 411.376, 124.537 412.734 C 126.499 415.112, 126.811 415.167, 133.037 414.211 C 140.021 413.140, 141.140 413.339, 138.925 415.260 C 138.140 415.942, 136.202 417.936, 134.619 419.690 L 131.740 422.880 136.339 428.138 C 138.869 431.029, 140.792 433.542, 140.612 433.721 C 139.987 434.346, 137 432.779, 137 431.826 C 137 431.298, 135.817 429.315, 134.370 427.419 C 132.298 424.702, 131.450 424.212, 130.370 425.108 C 129.617 425.733, 129 426.643, 129 427.130 C 129 427.617, 133.162 432.855, 138.250 438.771 C 143.338 444.687, 148.465 450.758, 149.644 452.263 C 151.145 454.179, 152.703 455, 154.839 455 C 157.351 455, 158.705 453.985, 162.507 449.250 C 165.046 446.087, 167.744 442.738, 168.503 441.808 C 169.728 440.304, 168.773 438.762, 159.941 427.977 C 154.473 421.301, 150 415.312, 149.999 414.669 C 149.999 414.026, 148.536 411.836, 146.749 409.803 C 144.962 407.770, 138.411 399.828, 132.190 392.154 C 125.970 384.481, 120.070 377.990, 119.079 377.731 C 117.891 377.420, 116.745 378.152, 115.713 379.880 C 113.949 382.833, 105.242 391.416, 106.616 388.846 C 107.102 387.937, 109.638 384.878, 112.250 382.050 C 114.862 379.221, 117 376.558, 117 376.133 C 117 375.015, 109.998 367, 109.021 367 C 108.568 367, 105.900 369.652, 103.092 372.894 M 22.818 370.500 C 26.352 375.466, 30.947 380.566, 30.928 379.500 C 30.918 378.950, 28.608 376.025, 25.796 373 C 22.984 369.975, 21.644 368.850, 22.818 370.500 M 31.500 373 C 31.160 373.550, 31.557 374, 32.382 374 C 33.207 374, 34.160 373.550, 34.500 373 C 34.840 372.450, 34.443 372, 33.618 372 C 32.793 372, 31.840 372.450, 31.500 373 M 85.046 375.086 C 85.660 376.233, 86.406 376.927, 86.705 376.629 C 87.529 375.805, 86.209 373, 84.996 373 C 84.257 373, 84.272 373.639, 85.046 375.086 M 199.219 373.800 C 198.263 374.439, 199.266 376.376, 203.175 381.440 L 208.412 388.223 211.206 385.096 C 214.580 381.319, 214.627 380.284, 211.584 376.829 C 209.087 373.993, 201.654 372.172, 199.219 373.800 M 377 377 C 377.589 378.100, 378.295 379, 378.570 379 C 378.845 379, 378.589 378.100, 378 377 C 377.411 375.900, 376.705 375, 376.430 375 C 376.155 375, 376.411 375.900, 377 377 M 60.834 380.250 C 57.848 384.056, 57.761 384.334, 60 382.908 C 61.375 382.033, 63.747 381.009, 65.272 380.634 C 67.664 380.044, 67.899 379.680, 66.987 377.975 C 65.472 375.145, 64.581 375.474, 60.834 380.250 M 196.264 377.185 C 196.607 378.112, 196.437 379.021, 195.887 379.204 C 195.336 379.388, 195.174 380.289, 195.526 381.206 C 195.878 382.123, 196.784 382.636, 197.539 382.346 C 198.321 382.047, 200.714 383.691, 203.090 386.160 L 207.267 390.500 203.930 386 C 198.643 378.872, 195.587 375.358, 196.264 377.185 M 143.232 381 C 144.494 383.020, 146 383.673, 146 382.200 C 146 381.161, 143.833 379, 142.792 379 C 142.347 379, 142.545 379.900, 143.232 381 M 476.750 380.662 C 477.438 380.940, 478.563 380.940, 479.250 380.662 C 479.938 380.385, 479.375 380.158, 478 380.158 C 476.625 380.158, 476.063 380.385, 476.750 380.662 M 351.526 383.950 C 350.687 385.573, 350 387.373, 350 387.950 C 350 389.450, 353.280 389.247, 355.519 387.610 C 357.152 386.416, 357.253 385.850, 356.232 383.610 C 354.687 380.220, 353.407 380.312, 351.526 383.950 M 468.762 381.707 C 470.006 381.946, 471.806 381.937, 472.762 381.687 C 473.718 381.437, 472.700 381.241, 470.500 381.252 C 468.300 381.263, 467.518 381.468, 468.762 381.707 M 121.713 385.250 C 129.172 394.986, 134.298 401.036, 134.725 400.608 C 135.240 400.093, 122.155 384, 121.221 384 C 120.965 384, 121.186 384.563, 121.713 385.250 M 213.577 387.488 L 210.917 390.976 215.079 396.488 C 217.368 399.520, 219.604 402, 220.048 402 C 221.053 402, 225 397.063, 225 395.805 C 225 394.631, 217.715 384.089, 216.869 384.038 C 216.521 384.017, 215.040 385.570, 213.577 387.488 M 230.405 390.250 L 228.500 392.500 230.750 390.595 C 231.988 389.547, 233 388.535, 233 388.345 C 233 387.545, 232.195 388.136, 230.405 390.250 M 17.500 390.158 C 15.850 390.708, 13.873 391.358, 13.107 391.603 C 12.341 391.847, 11.958 392.291, 12.256 392.589 C 13.016 393.350, 20.787 391.154, 21.517 389.973 C 22.240 388.803, 21.456 388.839, 17.500 390.158 M 98.188 393.063 C 98.428 393.784, 99.216 394.572, 99.938 394.813 C 100.688 395.063, 101.063 394.688, 100.813 393.938 C 100.572 393.216, 99.784 392.428, 99.063 392.188 C 98.313 391.938, 97.938 392.313, 98.188 393.063 M 208.269 394.942 C 207.223 396.616, 207.362 396.975, 209.278 397.554 C 210.500 397.923, 212.796 399.412, 214.381 400.862 C 216.969 403.232, 216.884 402.968, 213.537 398.250 C 211.488 395.363, 209.738 393, 209.647 393 C 209.556 393, 208.935 393.874, 208.269 394.942 M 225.200 399.200 C 223.437 400.963, 223.733 402, 226 402 C 227.333 402, 228 401.333, 228 400 C 228 397.733, 226.963 397.437, 225.200 399.200 M 129 399.882 C 129 400.432, 129.450 401.160, 130 401.500 C 130.550 401.840, 131 401.668, 131 401.118 C 131 400.568, 130.550 399.840, 130 399.500 C 129.450 399.160, 129 399.332, 129 399.882 M 299.095 406.750 C 299.831 407.712, 300.466 408.592, 300.505 408.705 C 300.544 408.817, 301.125 408.030, 301.796 406.955 C 302.891 405.201, 302.746 405, 300.386 405 C 298.037 405, 297.899 405.187, 299.095 406.750 M 303.718 408.143 C 302.056 411.062, 302.048 411.396, 303.597 413.107 C 305.199 414.878, 305.325 414.857, 307.174 412.505 C 308.980 410.210, 308.995 409.922, 307.431 407.534 C 306.517 406.140, 305.709 405.003, 305.635 405.006 C 305.561 405.010, 304.698 406.421, 303.718 408.143 M 437 407.986 C 437.825 408.527, 439.587 408.976, 440.917 408.985 C 444.126 409.005, 443.313 408.436, 439 407.645 C 436.538 407.193, 435.945 407.294, 437 407.986 M 141 410 C 141 410.550, 141.450 411, 142 411 C 142.550 411, 143 410.550, 143 410 C 143 409.450, 142.550 409, 142 409 C 141.450 409, 141 409.450, 141 410 M 175.750 409.662 C 176.438 409.940, 177.563 409.940, 178.250 409.662 C 178.938 409.385, 178.375 409.158, 177 409.158 C 175.625 409.158, 175.063 409.385, 175.750 409.662 M 403 410.969 C 403 411.501, 403.675 411.678, 404.500 411.362 C 405.325 411.045, 406 410.609, 406 410.393 C 406 410.177, 405.325 410, 404.500 410 C 403.675 410, 403 410.436, 403 410.969 M 308.036 414.433 C 307.320 415.770, 306.980 417.506, 307.281 418.289 C 307.608 419.142, 306.004 421.428, 303.280 423.992 C 299.258 427.777, 298.935 428.384, 300.486 429.252 C 301.866 430.024, 302.757 429.623, 304.672 427.367 C 306.714 424.962, 306.922 424.878, 305.966 426.847 C 304.842 429.160, 304.896 429.190, 309.535 428.847 C 313.660 428.543, 314.441 428.810, 315.838 431 C 317.404 433.457, 317.397 433.471, 315.431 431.790 C 313.535 430.169, 313.368 430.182, 312.207 432.040 C 311.534 433.118, 310.447 434, 309.792 434 C 308.874 434, 308.876 433.724, 309.800 432.800 C 311.673 430.927, 311.226 430, 308.449 430 C 305.428 430, 300.773 434.724, 296.776 441.847 L 294.053 446.701 296.276 448.677 C 298.434 450.594, 298.939 450.612, 313.351 449.260 C 321.518 448.494, 328.409 448.076, 328.663 448.330 C 328.917 448.584, 325.947 453.885, 322.063 460.111 C 318.178 466.336, 315 472.008, 315 472.715 C 315 474.051, 318.166 474.501, 319.336 473.330 C 319.705 472.962, 322.276 472.581, 325.050 472.483 C 327.824 472.386, 330.613 471.787, 331.247 471.153 C 331.881 470.519, 333.417 470, 334.661 470 C 336.271 470, 337.866 468.558, 340.205 464.984 C 343.775 459.531, 345.389 459.673, 342.052 465.146 C 340.069 468.399, 339.068 472.014, 340.985 469 C 341.737 467.818, 342.330 467.742, 343.785 468.643 C 344.998 469.395, 346.210 469.462, 347.323 468.839 C 348.254 468.318, 349.532 468.211, 350.162 468.600 C 350.936 469.079, 351.036 468.853, 350.469 467.905 C 347.829 463.494, 331.673 440.105, 325.666 432 C 321.795 426.775, 317.549 421.020, 316.233 419.211 L 313.839 415.922 310.913 419.961 C 309.304 422.183, 307.739 424, 307.435 424 C 306.848 424, 307.068 423.577, 310.610 417.880 C 312.283 415.189, 312.571 413.971, 311.730 413.130 C 310.096 411.496, 309.494 411.708, 308.036 414.433 M 208.383 414.772 C 206.479 416.326, 204.453 421, 205.683 421 C 206.317 421, 209.722 417.036, 211.052 414.750 C 212.344 412.529, 211.119 412.540, 208.383 414.772 M 146.785 415.511 C 147.351 416.617, 148.869 418.414, 150.157 419.504 C 152.417 421.416, 152.412 421.380, 150.015 418.493 C 146.033 413.697, 145.697 413.387, 146.785 415.511 M 166.615 416.465 C 164.540 419.631, 164.581 420, 167 420 C 168.250 420, 169 420.667, 169 421.777 C 169 422.755, 170.390 424.774, 172.089 426.265 C 174.556 428.430, 175.562 428.769, 177.089 427.952 C 178.140 427.390, 179 426.667, 179 426.346 C 179 425.463, 169.594 414.008, 168.865 414.004 C 168.516 414.002, 167.503 415.109, 166.615 416.465 M 133.500 415.913 C 132.240 416.283, 131.393 417.518, 131.212 419.250 C 130.844 422.767, 131.357 422.711, 134.041 418.942 C 136.476 415.523, 136.394 415.064, 133.500 415.913 M 121 417.819 C 121 419.027, 122.897 420.436, 123.591 419.743 C 123.842 419.491, 123.362 418.716, 122.524 418.020 C 121.574 417.231, 121 417.155, 121 417.819 M 77.865 421.068 C 75.367 423.752, 75.321 423.981, 76.990 425.491 C 78.612 426.959, 78.995 426.875, 81.917 424.417 C 84.927 421.883, 85 421.658, 83.387 419.875 C 81.283 417.550, 81.104 417.589, 77.865 421.068 M 186.068 422.904 C 183.521 426.481, 183.498 427, 185.885 427 C 187.983 427, 191.422 422.491, 190.483 420.972 C 189.468 419.330, 188.226 419.874, 186.068 422.904 M 124 421.845 C 124 422.752, 127.293 426, 128.212 426 C 129.574 426, 129.659 422.083, 128.308 421.565 C 126.149 420.736, 124 420.876, 124 421.845 M 285.500 421.916 L 282.500 422.596 285.649 424.272 C 288.862 425.981, 289.372 425.802, 291.403 422.250 C 292.187 420.879, 290.501 420.783, 285.500 421.916 M 293.658 424.002 C 292.683 425.653, 292.167 427.461, 292.512 428.020 C 293.211 429.151, 297.513 426.141, 299.738 422.963 C 301.008 421.150, 300.896 421, 298.272 421 C 296.176 421, 294.967 421.787, 293.658 424.002 M 90 424 C 90 424.550, 90.477 425, 91.059 425 C 91.641 425, 91.840 424.550, 91.500 424 C 91.160 423.450, 90.684 423, 90.441 423 C 90.198 423, 90 423.450, 90 424 M 154.165 425 C 154.858 426.375, 155.329 427.837, 155.212 428.250 C 155.096 428.663, 155.490 429, 156.090 429 C 156.689 429, 158.024 430.012, 159.056 431.250 C 160.089 432.488, 160.947 433.050, 160.964 432.500 C 160.981 431.950, 159.174 429.475, 156.950 427 C 154.461 424.231, 153.390 423.462, 154.165 425 M 369 424 C 369 424.550, 369.423 425, 369.941 425 C 370.459 425, 371.160 424.550, 371.500 424 C 371.840 423.450, 371.416 423, 370.559 423 C 369.702 423, 369 423.450, 369 424 M 186.719 431.429 C 183.573 435.515, 181 439.115, 181 439.429 C 181 439.743, 182.012 440.007, 183.250 440.015 C 184.747 440.025, 185.081 440.296, 184.250 440.824 C 183.271 441.446, 183.325 442.039, 184.498 443.559 C 185.957 445.451, 186.061 445.427, 188.558 442.624 C 190.726 440.191, 192.075 439.673, 197.311 439.265 C 200.715 439, 203.674 438.620, 203.887 438.421 C 204.230 438.100, 193.268 424, 192.675 424 C 192.544 424, 189.864 427.343, 186.719 431.429 M 44 427.409 C 44 427.599, 44.675 428.315, 45.500 429 C 46.365 429.718, 47 429.815, 47 429.229 C 47 428.671, 46.325 427.955, 45.500 427.638 C 44.675 427.322, 44 427.219, 44 427.409 M 179.008 431.989 C 177.253 434.453, 177.203 434.864, 178.588 435.395 C 180.784 436.238, 180.640 436.314, 182.919 433.113 C 184.960 430.248, 184.960 430.223, 182.989 429.707 C 181.597 429.343, 180.405 430.026, 179.008 431.989 M 298.852 432.792 C 297.215 435.117, 293.497 436.456, 289.670 436.098 C 287.183 435.865, 286.967 436.054, 287.892 437.666 C 289.662 440.753, 292.841 444.498, 293.255 443.985 C 294.719 442.175, 298.715 436.119, 299.768 434.115 C 301.339 431.125, 300.688 430.184, 298.852 432.792 M 264 434 C 263.411 435.100, 263.155 436, 263.430 436 C 263.705 436, 264.411 435.100, 265 434 C 265.589 432.900, 265.845 432, 265.570 432 C 265.295 432, 264.589 432.900, 264 434 M 337.250 432.740 C 333.813 432.936, 331 433.524, 331 434.048 C 331 434.571, 331.446 435, 331.991 435 C 332.536 435, 333.983 436.528, 335.207 438.395 C 337.018 441.158, 338.040 441.773, 340.696 441.697 C 343.688 441.612, 343.919 441.377, 343.476 438.864 C 342.855 435.340, 344.241 434.503, 346.521 437.024 C 348.780 439.519, 350 439.540, 350 437.082 C 350 433.444, 348.856 431.995, 346.143 432.193 C 344.689 432.299, 340.688 432.545, 337.250 432.740 M 253.351 435.581 L 253.202 438.161 255.101 436.122 C 257.453 433.598, 257.481 433, 255.250 433.001 C 254.074 433.001, 253.451 433.848, 253.351 435.581 M 81.924 438.250 L 84.349 441 81.924 443.750 L 79.500 446.500 82.044 444.269 L 84.588 442.038 87.384 445.224 C 89.962 448.162, 90.036 448.467, 88.340 449.135 C 86.993 449.665, 87.399 449.878, 89.854 449.930 L 93.207 450 90.187 446.560 C 88.526 444.668, 86.791 442.531, 86.331 441.810 C 85.871 441.090, 84.146 439.375, 82.497 438 L 79.500 435.500 81.924 438.250 M 143.750 438.013 C 144.438 438.917, 145 440.185, 145 440.829 C 145 441.473, 145.505 442, 146.122 442 C 146.942 442, 146.936 442.373, 146.100 443.379 C 145.191 444.475, 145.434 444.850, 147.281 445.203 C 148.560 445.447, 150.162 445.052, 150.842 444.324 C 151.836 443.260, 151.748 443, 150.395 443 C 149.470 443, 147.314 441.508, 145.606 439.684 C 143.898 437.860, 143.063 437.108, 143.750 438.013 M 258.337 442.250 C 254.706 447.391, 253.746 449, 254.308 449 C 254.672 449, 258.701 443.393, 261.300 439.269 C 263.224 436.215, 261.066 438.387, 258.337 442.250 M 164.737 449.548 C 160.283 455.308, 158.405 457, 156.464 457 C 154.016 457, 153.995 457.062, 155.592 459.500 C 157.474 462.373, 159.453 462.839, 158.776 460.250 C 158.415 458.870, 158.953 458.500, 161.318 458.500 C 163.811 458.500, 165.167 457.425, 169.337 452.143 C 173.228 447.213, 174.130 445.430, 173.356 444.202 C 172.807 443.331, 171.939 442.501, 171.429 442.357 C 170.918 442.214, 167.907 445.449, 164.737 449.548 M 170.237 452.425 C 167.907 455.408, 165.992 458.221, 165.983 458.675 C 165.973 459.129, 164.848 460.560, 163.483 461.855 C 161.293 463.932, 161 463.997, 161 462.405 C 161 461.041, 160.718 460.882, 159.846 461.754 C 158.555 463.045, 160.268 465.593, 168.685 474.901 C 173.079 479.760, 173.785 480.185, 175.734 479.142 C 177.649 478.117, 178.226 478.391, 180.700 481.491 C 182.240 483.421, 184.062 485, 184.750 485 C 185.437 485, 185.887 485.405, 185.750 485.899 C 185.509 486.767, 199.734 504.705, 202.455 506.963 C 203.509 507.837, 204.797 506.639, 208.507 501.331 C 211.100 497.623, 213.438 494.021, 213.705 493.328 C 213.971 492.634, 212.486 489.914, 210.404 487.283 C 203.156 478.121, 210.865 486.589, 221.311 499.264 L 231.831 512.029 238.464 502.514 C 242.113 497.281, 245.303 493, 245.555 493 C 245.806 493, 243.624 496.712, 240.705 501.250 C 237.786 505.788, 235.057 510.063, 234.640 510.750 C 234.085 511.666, 234.922 512, 237.768 512 C 241.367 512, 241.973 511.558, 246 506 C 252.572 496.928, 252.189 498.714, 245.196 509.750 L 243.770 512 253.417 512 L 263.064 512 255.289 502.250 C 251.013 496.887, 247.285 492.275, 247.004 492 C 246.724 491.725, 244.532 488.917, 242.133 485.760 C 238.745 481.300, 237.295 480.116, 235.636 480.451 C 234.461 480.689, 226.893 481.160, 218.817 481.498 L 204.134 482.114 189.848 464.557 C 181.990 454.901, 175.317 447, 175.018 447 C 174.718 447, 172.567 449.441, 170.237 452.425 M 279.500 451.984 L 276.500 452.595 279.274 453.163 C 280.799 453.476, 282.307 453.312, 282.624 452.799 C 283.457 451.451, 282.871 451.298, 279.500 451.984 M 301.179 451.853 C 298.943 452.482, 299.102 452.830, 305.455 461.253 C 309.084 466.064, 312.440 470, 312.913 470 C 313.385 470, 314.510 468.444, 315.413 466.542 C 316.315 464.641, 317.491 462.814, 318.027 462.483 C 318.562 462.153, 319 461.009, 319 459.941 C 319 458.873, 319.434 458, 319.965 458 C 320.495 458, 321.427 457.071, 322.034 455.936 C 324.075 452.124, 321.750 450.989, 312.128 451.100 C 307.382 451.155, 302.455 451.493, 301.179 451.853 M 179.310 457.514 C 178.479 458.403, 178.458 459.058, 179.236 459.836 C 180.014 460.614, 179.521 462.129, 177.490 465.210 C 173.956 470.568, 176.491 468.629, 180.722 462.738 C 183.551 458.798, 183.687 458.286, 182.157 457.330 C 180.934 456.566, 180.147 456.617, 179.310 457.514 M 247.362 458.250 C 245.056 461.516, 242.866 466.199, 243.396 466.729 C 244.179 467.512, 251.747 465.218, 252.522 463.964 C 252.856 463.424, 252.087 462.565, 250.814 462.055 C 249.084 461.361, 248.942 461.111, 250.250 461.063 C 252.288 460.990, 252.498 459.898, 250.800 458.200 C 249.274 456.674, 248.467 456.686, 247.362 458.250 M 239.459 460.067 C 238.370 461.829, 239.518 462.076, 241.573 460.521 C 243.265 459.241, 243.294 459.060, 241.809 459.032 C 240.879 459.014, 239.821 459.480, 239.459 460.067 M 123 463 C 123 463.550, 123.450 464, 124 464 C 124.550 464, 125 463.550, 125 463 C 125 462.450, 124.550 462, 124 462 C 123.450 462, 123 462.450, 123 463 M 337 463 C 337 463.550, 337.477 464, 338.059 464 C 338.641 464, 338.840 463.550, 338.500 463 C 338.160 462.450, 337.684 462, 337.441 462 C 337.198 462, 337 462.450, 337 463 M 84.416 472.731 C 88.115 477.258, 90.869 481.403, 90.536 481.942 C 89.494 483.628, 82.851 484.388, 80.732 483.065 C 79.158 482.082, 78.868 482.103, 79.225 483.174 C 79.871 485.112, 96.149 485.053, 96.796 483.111 C 97.057 482.329, 96.806 482.002, 96.222 482.363 C 95.651 482.716, 91.248 478.841, 86.437 473.752 L 77.690 464.500 84.416 472.731 M 142.106 489.009 C 132.698 501.113, 125 511.226, 125 511.480 C 125 511.735, 142.051 511.958, 162.892 511.975 C 196.885 512.003, 200.847 511.840, 201.404 510.390 C 201.963 508.934, 193.656 497.859, 185.360 489 C 184.072 487.625, 181.853 485.042, 180.428 483.259 C 178.119 480.370, 177.675 480.182, 176.328 481.529 C 174.982 482.875, 174.457 482.739, 171.482 480.269 C 169.646 478.746, 168.112 477.136, 168.072 476.690 C 167.973 475.574, 160.737 467, 159.894 467 C 159.519 467, 151.514 476.904, 142.106 489.009 M 172.872 471.750 C 171.629 473.336, 171.664 473.371, 173.250 472.128 C 174.213 471.373, 175 470.585, 175 470.378 C 175 469.555, 174.179 470.084, 172.872 471.750 M 381 479 C 381 479.550, 381.450 480, 382 480 C 382.550 480, 383 479.550, 383 479 C 383 478.450, 382.550 478, 382 478 C 381.450 478, 381 478.450, 381 479 M 165.035 480.934 C 163.731 483.372, 163.716 484.294, 164.995 483.503 C 166.601 482.511, 168.219 479, 167.070 479 C 166.520 479, 165.605 479.870, 165.035 480.934 M 244.500 481 C 244.840 481.550, 245.965 482, 247 482 C 248.035 482, 249.160 481.550, 249.500 481 C 249.862 480.415, 248.824 480, 247 480 C 245.176 480, 244.138 480.415, 244.500 481 M 119 481.893 C 119 482.384, 119.712 483.059, 120.582 483.393 C 123.028 484.332, 123.351 484.128, 122 482.500 C 120.620 480.838, 119 480.510, 119 481.893 M 248.980 484.524 C 248.284 485.362, 247.909 486.242, 248.145 486.479 C 248.382 486.715, 249.125 486.030, 249.796 484.955 C 251.248 482.630, 250.764 482.375, 248.980 484.524 M 160.389 485.979 C 158.410 486.779, 157.053 488.775, 156.430 491.802 C 156.282 492.518, 155.424 494.318, 154.521 495.802 L 152.881 498.500 155.059 496 C 156.256 494.625, 158.285 492.162, 159.567 490.528 C 161.204 488.441, 162.658 487.618, 164.449 487.766 C 165.852 487.883, 167 487.533, 167 486.989 C 167 486.445, 166.587 486, 166.082 486 C 165.577 486, 164.564 485.803, 163.832 485.563 C 163.099 485.322, 161.550 485.509, 160.389 485.979 M 209.689 501.110 C 202.813 511.139, 203.026 511.440, 217.262 511.782 C 223.718 511.937, 229 511.701, 229 511.258 C 229 510.252, 216.314 494.588, 215.267 494.302 C 214.845 494.186, 212.335 497.250, 209.689 501.110 M 293.329 506.614 C 289.518 512.110, 289.475 512, 295.441 512 C 298.498 512, 300.988 511.663, 300.973 511.250 C 300.958 510.837, 299.682 508.976, 298.138 507.114 L 295.330 503.728 293.329 506.614 M 143 509 C 143.589 510.100, 144.520 511, 145.070 511 C 145.714 511, 145.688 510.286, 145 509 C 144.411 507.900, 143.480 507, 142.930 507 C 142.286 507, 142.312 507.714, 143 509" stroke="none" fill="black" fill-rule="evenodd"/>
</svg>